<svg width="350" height="106" viewBox="0 0 350 106" fill="none" xmlns="http://www.w3.org/2000/svg">
<g filter="url(#filter0_d_126_162)">
<rect x="4" width="91" height="39" rx="5" fill="#FF3D3D"/>
</g>
<path d="M35.1495 22.496H33.2455L32.6215 26H29.7415L31.7735 14.48H36.6535C37.8588 14.48 38.7175 14.7573 39.2295 15.312C39.6028 15.7387 39.7895 16.2827 39.7895 16.944C39.7895 17.168 39.7682 17.4027 39.7255 17.648L39.4055 19.456C39.2455 20.3413 38.7762 21.072 37.9975 21.648C37.2188 22.2133 36.2695 22.496 35.1495 22.496ZM35.6455 16.976H34.2055L33.6775 20H35.1015C35.9762 20 36.4828 19.6107 36.6215 18.832L36.7335 18.176C36.7548 18.08 36.7655 17.952 36.7655 17.792C36.7655 17.632 36.6855 17.456 36.5255 17.264C36.3655 17.072 36.0722 16.976 35.6455 16.976ZM45.4219 26L45.5179 23.488H42.8459L42.0619 26H39.0059L43.1179 14.48H48.3979L48.4619 26H45.4219ZM44.7659 17.28L43.5019 21.344H45.5979L45.7739 17.28H44.7659ZM52.9225 22.72C52.9225 23.456 53.4505 23.824 54.5065 23.824C55.5732 23.824 56.1065 23.4933 56.1065 22.832C56.1065 22.48 55.9252 22.192 55.5625 21.968C55.1998 21.744 54.7572 21.5573 54.2345 21.408C53.7225 21.2587 53.2052 21.088 52.6825 20.896C52.1705 20.6933 51.7332 20.384 51.3705 19.968C51.0078 19.5413 50.8265 19.0133 50.8265 18.384C50.8265 15.7067 52.5492 14.368 55.9945 14.368C57.2532 14.368 58.2025 14.608 58.8425 15.088C59.4932 15.5573 59.8185 16.2133 59.8185 17.056C59.8185 17.3653 59.7758 17.664 59.6905 17.952C59.6158 18.2293 59.5358 18.4267 59.4505 18.544L59.3225 18.736H56.4905C56.7252 18.4907 56.8425 18.1813 56.8425 17.808C56.8425 17.1147 56.3892 16.768 55.4825 16.768C54.3412 16.768 53.7705 17.1307 53.7705 17.856C53.7705 18.2187 53.9518 18.5067 54.3145 18.72C54.6772 18.9333 55.1145 19.104 55.6265 19.232C56.1492 19.3493 56.6718 19.4987 57.1945 19.68C57.7172 19.8613 58.1598 20.1653 58.5225 20.592C58.8852 21.008 59.0665 21.552 59.0665 22.224C59.0665 23.5787 58.6612 24.5867 57.8505 25.248C57.0398 25.8987 55.7918 26.224 54.1065 26.224C52.4212 26.224 51.2692 25.9253 50.6505 25.328C50.1918 24.88 49.9625 24.2613 49.9625 23.472C49.9625 23.1733 49.9945 22.848 50.0585 22.496L50.1065 22.24H52.9865L52.9545 22.432C52.9332 22.5387 52.9225 22.6347 52.9225 22.72ZM66.4655 14.368C69.0362 14.368 70.3215 15.4187 70.3215 17.52C70.3215 17.872 70.2842 18.2507 70.2095 18.656L69.6495 21.856C69.3935 23.3387 68.8388 24.4373 67.9855 25.152C67.1322 25.8667 65.9322 26.224 64.3855 26.224C62.8388 26.224 61.7615 25.8667 61.1535 25.152C60.7375 24.6613 60.5295 23.984 60.5295 23.12C60.5295 22.736 60.5722 22.3147 60.6575 21.856L61.2175 18.656C61.7188 15.7973 63.4682 14.368 66.4655 14.368ZM64.8175 23.744C65.3508 23.744 65.7775 23.6053 66.0975 23.328C66.4175 23.0507 66.6415 22.5387 66.7695 21.792L67.3135 18.72C67.3455 18.5067 67.3615 18.3147 67.3615 18.144C67.3615 17.28 66.9242 16.848 66.0495 16.848C64.9508 16.8693 64.2948 17.4933 64.0815 18.72L63.5375 21.792C63.4948 22.0587 63.4735 22.336 63.4735 22.624C63.4735 23.3707 63.9215 23.744 64.8175 23.744Z" fill="white"/>
<path d="M172.41 15.7935C170.765 10.7226 166.061 7.5 161.005 7.5C159.776 7.5 158.527 7.68871 157.293 8.09032C150.993 10.1371 147.543 16.9065 149.59 23.2065C151.235 28.2774 155.939 31.5 160.995 31.5C162.224 31.5 163.473 31.3113 164.707 30.9097C171.007 28.8629 174.457 22.0935 172.41 15.7935ZM168.805 25.1661L166.279 25.4758L164.165 22.529L165.345 18.8903L168.786 17.821L170.668 19.5823C170.658 21.0677 170.31 22.5387 169.618 23.8984C169.391 24.3484 169.1 24.7597 168.805 25.1661ZM168.805 13.7758L168.302 16.3452L164.881 17.4097L161.774 15.1597V11.5887L164.068 10.321C165.965 10.95 167.62 12.1597 168.805 13.7758ZM157.947 10.3258L160.226 11.5887V15.1597L157.119 17.4097L153.703 16.3452L153.214 13.8048C154.39 12.1887 156.016 10.9694 157.947 10.3258ZM155.726 25.4758L153.156 25.1613C152.459 24.1887 151.351 22.2774 151.327 19.5823L153.214 17.821L156.655 18.8952L157.831 22.4903L155.726 25.4758ZM158.058 28.7177L156.974 26.3903L159.084 23.4048H162.887L165.031 26.3903L163.947 28.7177C163.647 28.8048 161.16 29.7048 158.058 28.7177Z" fill="white"/>
<path d="M200.41 15.7935C198.765 10.7226 194.061 7.5 189.005 7.5C187.776 7.5 186.527 7.68871 185.293 8.09032C178.993 10.1371 175.543 16.9065 177.59 23.2065C179.235 28.2774 183.939 31.5 188.995 31.5C190.224 31.5 191.473 31.3113 192.707 30.9097C199.007 28.8629 202.457 22.0935 200.41 15.7935ZM196.805 25.1661L194.279 25.4758L192.165 22.529L193.345 18.8903L196.786 17.821L198.668 19.5823C198.658 21.0677 198.31 22.5387 197.618 23.8984C197.391 24.3484 197.1 24.7597 196.805 25.1661ZM196.805 13.7758L196.302 16.3452L192.881 17.4097L189.774 15.1597V11.5887L192.068 10.321C193.965 10.95 195.62 12.1597 196.805 13.7758ZM185.947 10.3258L188.226 11.5887V15.1597L185.119 17.4097L181.703 16.3452L181.214 13.8048C182.39 12.1887 184.016 10.9694 185.947 10.3258ZM183.726 25.4758L181.156 25.1613C180.459 24.1887 179.351 22.2774 179.327 19.5823L181.214 17.821L184.655 18.8952L185.831 22.4903L183.726 25.4758ZM186.058 28.7177L184.974 26.3903L187.084 23.4048H190.887L193.031 26.3903L191.947 28.7177C191.647 28.8048 189.16 29.7048 186.058 28.7177Z" fill="white"/>
<g filter="url(#filter1_d_126_162)">
<rect x="255" width="91" height="39" rx="5" fill="#1FD26B"/>
</g>
<path d="M295.457 12.46C298.67 12.46 300.277 13.7733 300.277 16.4C300.277 16.84 300.23 17.3133 300.137 17.82L299.437 21.82C299.117 23.6733 298.424 25.0467 297.357 25.94C296.29 26.8333 294.79 27.28 292.857 27.28C290.924 27.28 289.577 26.8333 288.817 25.94C288.297 25.3267 288.037 24.48 288.037 23.4C288.037 22.92 288.09 22.3933 288.197 21.82L288.897 17.82C289.524 14.2467 291.71 12.46 295.457 12.46ZM293.397 24.18C294.064 24.18 294.597 24.0067 294.997 23.66C295.397 23.3133 295.677 22.6733 295.837 21.74L296.517 17.9C296.557 17.6333 296.577 17.3933 296.577 17.18C296.577 16.1 296.03 15.56 294.937 15.56C293.564 15.5867 292.744 16.3667 292.477 17.9L291.797 21.74C291.744 22.0733 291.717 22.42 291.717 22.78C291.717 23.7133 292.277 24.18 293.397 24.18ZM314.918 12.6L310.338 19.86L312.378 27H308.578L307.078 21.72H305.498L304.558 27H300.958L303.498 12.6H307.098L306.038 18.6H307.318L311.118 12.6H314.918Z" fill="white"/>
<path fill-rule="evenodd" clip-rule="evenodd" d="M12 55C7.58172 55 4 58.5817 4 63V98C4 102.418 7.58173 106 12 106H338C342.418 106 346 102.418 346 98V63C346 58.5817 342.418 55 338 55H12ZM131.185 84.688C130.897 84.848 130.569 84.928 130.201 84.928C129.721 84.928 129.481 84.712 129.481 84.28C129.481 84.2 129.489 84.112 129.505 84.016L130.849 76.456H126.769L125.329 84.568C125.265 84.952 125.233 85.4 125.233 85.912C125.233 86.408 125.377 86.88 125.665 87.328C126.097 88 127.041 88.336 128.497 88.336C129.457 88.336 130.313 88.024 131.065 87.4L131.185 84.688ZM127.921 70.312C127.473 70.776 127.249 71.52 127.249 72.544C127.249 73.696 127.913 74.272 129.241 74.272C130.217 74.272 130.929 74.04 131.377 73.576C131.841 73.112 132.073 72.376 132.073 71.368C132.073 70.184 131.401 69.592 130.057 69.592C129.097 69.592 128.385 69.832 127.921 70.312ZM123.211 71.92C122.443 71.12 121.147 70.72 119.323 70.72H112.363L109.315 88H113.923L114.907 81.544H116.395L118.411 88H123.259L121.075 80.992C121.651 80.72 122.171 80.264 122.635 79.624C123.115 78.984 123.451 78.144 123.643 77.104L123.979 75.232C124.043 74.88 124.075 74.544 124.075 74.224C124.075 73.296 123.787 72.528 123.211 71.92ZM116.011 74.464H117.811C118.899 74.464 119.443 75.112 119.443 76.408C119.443 77.08 119.259 77.624 118.891 78.04C118.523 78.44 117.915 78.64 117.067 78.64H115.387L116.011 74.464ZM144.829 76.456C145.053 77.128 145.165 78.024 145.165 79.144C145.165 80.248 145.029 81.312 144.757 82.336C144.485 83.36 144.069 84.336 143.509 85.264C142.965 86.176 142.197 86.92 141.205 87.496C140.229 88.056 139.101 88.336 137.821 88.336C135.821 88.336 134.437 87.928 133.669 87.112C133.157 86.568 132.901 85.736 132.901 84.616C132.901 84.088 132.965 83.488 133.093 82.816L134.221 76.456H138.301L137.173 82.84C137.125 83.08 137.101 83.296 137.101 83.488C137.101 84.4 137.573 84.856 138.517 84.856C140.181 84.856 141.013 83.112 141.013 79.624C141.013 78.808 140.949 77.904 140.821 76.912L140.749 76.456H144.829ZM146.368 84.88C146.368 87.184 148.032 88.336 151.36 88.336C155.008 88.336 157.096 86.84 157.624 83.848L153.64 83.8C153.592 84.12 153.432 84.4 153.16 84.64C152.888 84.88 152.56 85 152.176 85C151.136 85 150.616 84.56 150.616 83.68C150.616 83.52 150.632 83.344 150.664 83.152L150.76 82.6H158.08L158.368 80.896C158.432 80.48 158.464 80.096 158.464 79.744C158.464 77.312 156.856 76.096 153.64 76.096C151.752 76.096 150.232 76.512 149.08 77.344C147.944 78.16 147.24 79.336 146.968 80.872L146.464 83.848C146.4 84.216 146.368 84.56 146.368 84.88ZM154.336 80.392C154.336 80.616 154.304 80.864 154.24 81.136H151C151.144 80.528 151.4 80.072 151.768 79.768C152.152 79.464 152.568 79.312 153.016 79.312C153.48 79.312 153.816 79.432 154.024 79.672C154.232 79.912 154.336 80.152 154.336 80.392ZM171.395 78.904C171.395 79.448 171.299 79.976 171.107 80.488C170.931 81 170.755 81.376 170.579 81.616L170.315 81.952H166.691C167.091 81.584 167.291 81.128 167.291 80.584C167.291 80.296 167.195 80.064 167.003 79.888C166.827 79.696 166.579 79.6 166.259 79.6C165.715 79.6 165.243 79.872 164.843 80.416L163.499 88H159.419L161.459 76.456H165.251L164.963 78.064C165.875 76.768 166.979 76.12 168.275 76.12C169.315 76.12 170.091 76.368 170.603 76.864C171.131 77.36 171.395 78.04 171.395 78.904ZM183.032 82.744H185.888C187.568 82.744 188.992 82.32 190.16 81.472C191.328 80.608 192.032 79.512 192.272 78.184L192.752 75.472C192.816 75.104 192.848 74.752 192.848 74.416C192.848 73.424 192.568 72.608 192.008 71.968C191.24 71.136 189.952 70.72 188.144 70.72H180.824L177.776 88H182.096L183.032 82.744ZM184.472 74.464H186.632C187.272 74.464 187.712 74.608 187.952 74.896C188.192 75.184 188.312 75.448 188.312 75.688C188.312 75.928 188.296 76.12 188.264 76.264L188.096 77.248C187.888 78.416 187.128 79 185.816 79H183.68L184.472 74.464ZM197.617 84.304C197.617 84.72 197.825 84.928 198.241 84.928C198.673 84.928 199.033 84.848 199.321 84.688L199.201 87.4C198.433 88.024 197.569 88.336 196.609 88.336C195.153 88.336 194.209 88 193.777 87.328C193.505 86.896 193.369 86.424 193.369 85.912C193.369 85.4 193.401 84.952 193.465 84.568L196.081 69.784H200.161L197.641 84.016C197.625 84.112 197.617 84.208 197.617 84.304ZM212.697 84.928C212.281 84.928 212.073 84.72 212.073 84.304C212.073 84.208 212.081 84.112 212.097 84.016L213.441 76.456H209.793L209.673 77.176C209.145 76.488 208.137 76.144 206.649 76.144C205.177 76.144 203.977 76.576 203.049 77.44C202.137 78.288 201.553 79.432 201.297 80.872L200.793 83.68C200.713 84.144 200.673 84.568 200.673 84.952C200.673 87.208 201.985 88.336 204.609 88.336C206.161 88.336 207.337 87.696 208.137 86.416C208.329 87.696 209.305 88.336 211.065 88.336C212.025 88.336 212.889 88.024 213.657 87.4L213.777 84.688C213.489 84.848 213.129 84.928 212.697 84.928ZM204.921 83.752C204.921 83.496 204.937 83.296 204.969 83.152L205.281 81.352C205.489 80.168 206.209 79.576 207.441 79.576C208.097 79.576 208.513 79.776 208.689 80.176L207.969 84.208C207.553 84.656 207.057 84.88 206.481 84.88C205.921 84.88 205.521 84.76 205.281 84.52C205.041 84.264 204.921 84.008 204.921 83.752ZM220.391 88.336C218.535 88.336 217.199 87.92 216.383 87.088C215.775 86.48 215.471 85.664 215.471 84.64C215.471 84.304 215.503 83.944 215.567 83.56L217.199 74.272L221.591 72.448L220.895 76.456H227.519L226.919 79.84H220.295L219.815 82.552C219.751 82.856 219.719 83.128 219.719 83.368C219.719 84.376 220.199 84.88 221.159 84.88C221.671 84.88 222.095 84.664 222.431 84.232C222.783 83.8 223.023 83.224 223.151 82.504H227.135C226.463 86.392 224.215 88.336 220.391 88.336ZM228.283 84.88C228.283 87.184 229.946 88.336 233.274 88.336C236.922 88.336 239.01 86.84 239.538 83.848L235.554 83.8C235.506 84.12 235.346 84.4 235.074 84.64C234.802 84.88 234.474 85 234.09 85C233.05 85 232.53 84.56 232.53 83.68C232.53 83.52 232.546 83.344 232.578 83.152L232.674 82.6H239.994L240.283 80.896C240.346 80.48 240.378 80.096 240.378 79.744C240.378 77.312 238.77 76.096 235.554 76.096C233.666 76.096 232.146 76.512 230.994 77.344C229.858 78.16 229.154 79.336 228.882 80.872L228.378 83.848C228.314 84.216 228.283 84.56 228.283 84.88ZM236.25 80.392C236.25 80.616 236.218 80.864 236.154 81.136H232.914C233.058 80.528 233.314 80.072 233.682 79.768C234.066 79.464 234.482 79.312 234.93 79.312C235.394 79.312 235.73 79.432 235.938 79.672C236.146 79.912 236.25 80.152 236.25 80.392Z" fill="white"/>
<rect x="5" y="64" width="340" height="33" rx="4" stroke="white" stroke-width="2"/>
<defs>
<filter id="filter0_d_126_162" x="0" y="0" width="99" height="47" filterUnits="userSpaceOnUse" color-interpolation-filters="sRGB">
<feFlood flood-opacity="0" result="BackgroundImageFix"/>
<feColorMatrix in="SourceAlpha" type="matrix" values="0 0 0 0 0 0 0 0 0 0 0 0 0 0 0 0 0 0 127 0" result="hardAlpha"/>
<feOffset dy="4"/>
<feGaussianBlur stdDeviation="2"/>
<feComposite in2="hardAlpha" operator="out"/>
<feColorMatrix type="matrix" values="0 0 0 0 0 0 0 0 0 0 0 0 0 0 0 0 0 0 0.25 0"/>
<feBlend mode="normal" in2="BackgroundImageFix" result="effect1_dropShadow_126_162"/>
<feBlend mode="normal" in="SourceGraphic" in2="effect1_dropShadow_126_162" result="shape"/>
</filter>
<filter id="filter1_d_126_162" x="251" y="0" width="99" height="47" filterUnits="userSpaceOnUse" color-interpolation-filters="sRGB">
<feFlood flood-opacity="0" result="BackgroundImageFix"/>
<feColorMatrix in="SourceAlpha" type="matrix" values="0 0 0 0 0 0 0 0 0 0 0 0 0 0 0 0 0 0 127 0" result="hardAlpha"/>
<feOffset dy="4"/>
<feGaussianBlur stdDeviation="2"/>
<feComposite in2="hardAlpha" operator="out"/>
<feColorMatrix type="matrix" values="0 0 0 0 0 0 0 0 0 0 0 0 0 0 0 0 0 0 0.25 0"/>
<feBlend mode="normal" in2="BackgroundImageFix" result="effect1_dropShadow_126_162"/>
<feBlend mode="normal" in="SourceGraphic" in2="effect1_dropShadow_126_162" result="shape"/>
</filter>
</defs>
</svg>
