<svg width="181" height="209" viewBox="0 0 181 209" fill="none" xmlns="http://www.w3.org/2000/svg">
<path d="M31.336 8.28C33.312 8.28 34.716 8.71333 35.548 9.58C36.172 10.2387 36.484 11.0707 36.484 12.076C36.484 12.4227 36.4493 12.7867 36.38 13.168L36.016 15.196C35.808 16.3227 35.444 17.2327 34.924 17.926C34.4213 18.6193 33.858 19.1133 33.234 19.408L35.6 27H30.348L28.164 20.006H26.552L25.486 27H20.494L23.796 8.28H31.336ZM29.698 12.336H27.748L27.072 16.86H28.892C29.8107 16.86 30.4693 16.6433 30.868 16.21C31.2667 15.7593 31.466 15.17 31.466 14.442C31.466 13.038 30.8767 12.336 29.698 12.336ZM42.8865 27.364C39.2812 27.364 37.4785 26.116 37.4785 23.62C37.4785 23.2733 37.5132 22.9007 37.5825 22.502L38.1285 19.278C38.4232 17.614 39.1858 16.34 40.4165 15.456C41.6645 14.5547 43.3112 14.104 45.3565 14.104C48.8405 14.104 50.5825 15.4213 50.5825 18.056C50.5825 18.4373 50.5478 18.8533 50.4785 19.304L50.1665 21.15H42.2365L42.1325 21.748C42.0978 21.956 42.0805 22.1467 42.0805 22.32C42.0805 23.2733 42.6438 23.75 43.7705 23.75C44.1865 23.75 44.5418 23.62 44.8365 23.36C45.1312 23.1 45.3045 22.7967 45.3565 22.45L49.6725 22.502C49.1005 25.7433 46.8385 27.364 42.8865 27.364ZM46.0065 19.564C46.0758 19.2693 46.1105 19.0007 46.1105 18.758C46.1105 18.498 45.9978 18.238 45.7725 17.978C45.5472 17.718 45.1832 17.588 44.6805 17.588C44.1952 17.588 43.7445 17.7527 43.3285 18.082C42.9298 18.4113 42.6525 18.9053 42.4965 19.564H46.0065ZM64.9802 17.198C64.9802 17.77 64.8069 18.2987 64.4602 18.784H60.1962C60.3349 18.68 60.4042 18.5067 60.4042 18.264C60.4042 18.0213 60.2655 17.8307 59.9882 17.692C59.7109 17.536 59.3555 17.458 58.9222 17.458C57.6222 17.458 56.9722 17.8567 56.9722 18.654C56.9722 18.966 57.2149 19.1913 57.7002 19.33C58.1855 19.4687 58.7749 19.5813 59.4682 19.668C60.1615 19.7547 60.8549 19.8847 61.5482 20.058C62.2415 20.214 62.8309 20.5347 63.3162 21.02C63.8015 21.5053 64.0442 22.1553 64.0442 22.97C64.0442 24.4087 63.4635 25.5007 62.3022 26.246C61.1582 26.9913 59.4855 27.364 57.2842 27.364C55.0829 27.364 53.5402 27.0087 52.6562 26.298C51.9629 25.7433 51.6162 24.9807 51.6162 24.01C51.6162 23.7327 51.6422 23.4467 51.6942 23.152L56.0362 23.1C56.0015 23.3427 56.1402 23.5593 56.4522 23.75C56.7815 23.9233 57.2582 24.01 57.8822 24.01C58.5062 24.01 58.9569 23.9493 59.2342 23.828C59.5115 23.6893 59.6502 23.438 59.6502 23.074C59.6502 22.8313 59.4075 22.6667 58.9222 22.58C58.4369 22.476 57.8389 22.3893 57.1282 22.32C56.4349 22.2507 55.7329 22.138 55.0222 21.982C54.3289 21.826 53.7395 21.4967 53.2542 20.994C52.7689 20.4913 52.5262 19.8327 52.5262 19.018C52.5262 17.4407 53.1329 16.2273 54.3462 15.378C55.5769 14.5287 57.3449 14.104 59.6502 14.104C63.2035 14.104 64.9802 15.1353 64.9802 17.198ZM78.7817 22.996C78.7817 23.4467 79.0071 23.672 79.4577 23.672C79.9257 23.672 80.3157 23.5853 80.6277 23.412L80.4977 26.35C79.6657 27.026 78.7297 27.364 77.6897 27.364C75.7311 27.364 74.6651 26.61 74.4917 25.102C73.4517 26.61 72.0477 27.364 70.2797 27.364C68.5291 27.364 67.3937 26.9653 66.8737 26.168C66.5271 25.6653 66.3537 25.0933 66.3537 24.452C66.3537 23.8107 66.4057 23.2213 66.5097 22.684L67.9657 14.494H72.3857L71.1637 21.41C71.1117 21.722 71.0857 22.034 71.0857 22.346C71.0857 23.178 71.5537 23.594 72.4897 23.594C73.2697 23.594 73.8937 23.3253 74.3617 22.788L75.8437 14.494H80.2637L78.8077 22.684C78.7904 22.788 78.7817 22.892 78.7817 22.996ZM87.0818 22.996C87.0818 23.4467 87.3072 23.672 87.7578 23.672C88.2258 23.672 88.6158 23.5853 88.9278 23.412L88.7978 26.35C87.9658 27.026 87.0298 27.364 85.9898 27.364C84.4125 27.364 83.3898 27 82.9218 26.272C82.6272 25.804 82.4798 25.2927 82.4798 24.738C82.4798 24.1833 82.5145 23.698 82.5838 23.282L85.4178 7.266H89.8378L87.1078 22.684C87.0905 22.788 87.0818 22.892 87.0818 22.996ZM96.1126 27.364C94.1019 27.364 92.6546 26.9133 91.7706 26.012C91.1119 25.3533 90.7826 24.4693 90.7826 23.36C90.7826 22.996 90.8172 22.606 90.8866 22.19L92.6546 12.128L97.4126 10.152L96.6586 14.494H103.835L103.185 18.16H96.0086L95.4886 21.098C95.4192 21.4273 95.3846 21.722 95.3846 21.982C95.3846 23.074 95.9046 23.62 96.9446 23.62C97.4992 23.62 97.9586 23.386 98.3226 22.918C98.7039 22.45 98.9639 21.826 99.1026 21.046H103.419C102.691 25.258 100.255 27.364 96.1126 27.364ZM117.012 22.996C117.012 23.4467 117.237 23.672 117.688 23.672C118.156 23.672 118.546 23.5853 118.858 23.412L118.728 26.35C117.896 27.026 116.96 27.364 115.92 27.364C114.013 27.364 112.956 26.6707 112.748 25.284C111.881 26.6707 110.607 27.364 108.926 27.364C106.083 27.364 104.662 26.142 104.662 23.698C104.662 23.282 104.705 22.8227 104.792 22.32L105.338 19.278C105.615 17.718 106.248 16.4787 107.236 15.56C108.241 14.624 109.541 14.156 111.136 14.156C112.748 14.156 113.84 14.5287 114.412 15.274L114.542 14.494H118.494L117.038 22.684C117.021 22.788 117.012 22.892 117.012 22.996ZM109.316 21.748C109.281 21.904 109.264 22.1207 109.264 22.398C109.264 22.6753 109.394 22.9527 109.654 23.23C109.914 23.49 110.347 23.62 110.954 23.62C111.578 23.62 112.115 23.3773 112.566 22.892L113.346 18.524C113.155 18.0907 112.705 17.874 111.994 17.874C110.659 17.874 109.879 18.5153 109.654 19.798L109.316 21.748ZM132.653 22.996C132.653 23.4467 132.878 23.672 133.329 23.672C133.797 23.672 134.187 23.5853 134.499 23.412L134.369 26.35C133.537 27.026 132.601 27.364 131.561 27.364C129.654 27.364 128.597 26.6707 128.389 25.284C127.522 26.6707 126.248 27.364 124.567 27.364C121.724 27.364 120.303 26.142 120.303 23.698C120.303 23.282 120.346 22.8227 120.433 22.32L120.979 19.278C121.256 17.718 121.889 16.4787 122.877 15.56C123.882 14.624 125.269 14.156 127.037 14.156C128.129 14.156 128.995 14.39 129.637 14.858L130.963 7.266H135.409L132.679 22.684C132.661 22.788 132.653 22.892 132.653 22.996ZM124.957 21.748C124.922 21.904 124.905 22.1207 124.905 22.398C124.905 22.6753 125.035 22.9527 125.295 23.23C125.555 23.49 125.988 23.62 126.595 23.62C127.219 23.62 127.756 23.3773 128.207 22.892L128.987 18.524C128.796 18.0907 128.345 17.874 127.635 17.874C126.3 17.874 125.52 18.5153 125.295 19.798L124.957 21.748ZM144.28 14.13C146.152 14.13 147.564 14.5373 148.518 15.352C149.263 15.9933 149.636 16.886 149.636 18.03C149.636 18.4113 149.592 18.8273 149.506 19.278L148.96 22.32C148.63 24.1573 147.859 25.4573 146.646 26.22C145.45 26.9827 143.846 27.364 141.836 27.364C139.825 27.364 138.352 26.9827 137.416 26.22C136.722 25.648 136.376 24.79 136.376 23.646C136.376 23.2473 136.419 22.8053 136.506 22.32L137.052 19.278C137.658 15.846 140.068 14.13 144.28 14.13ZM144.982 19.798C145.016 19.6247 145.034 19.408 145.034 19.148C145.034 18.8707 144.921 18.5673 144.696 18.238C144.47 17.9087 144.072 17.744 143.5 17.744C142.945 17.744 142.477 17.9347 142.096 18.316C141.714 18.68 141.472 19.174 141.368 19.798L141.03 21.748C140.995 21.9213 140.978 22.1467 140.978 22.424C140.978 22.684 141.09 22.97 141.316 23.282C141.541 23.594 141.931 23.75 142.486 23.75C143.058 23.75 143.534 23.5593 143.916 23.178C144.297 22.7793 144.54 22.3027 144.644 21.748L144.982 19.798ZM151.077 25.492C151.077 24.3827 151.32 23.5767 151.805 23.074C152.291 22.554 153.062 22.294 154.119 22.294C155.575 22.294 156.303 22.9353 156.303 24.218C156.303 25.31 156.052 26.1073 155.549 26.61C155.064 27.1127 154.293 27.364 153.235 27.364C151.797 27.364 151.077 26.74 151.077 25.492ZM152.507 17.302C152.507 16.1927 152.75 15.3867 153.235 14.884C153.738 14.364 154.431 14.104 155.315 14.104C156.199 14.104 156.823 14.26 157.187 14.572C157.551 14.8667 157.733 15.352 157.733 16.028C157.733 17.12 157.482 17.9173 156.979 18.42C156.494 18.9227 155.723 19.174 154.665 19.174C153.227 19.174 152.507 18.55 152.507 17.302Z" fill="#EDEDED"/>
<g filter="url(#filter0_d_126_163)">
<rect x="4" y="159" width="173" height="42" rx="21" fill="white"/>
</g>
<path d="M28.1339 182.85L31.5539 173.04H35.0639L30.1499 186H24.3899L24.2459 173.04H27.7739L27.7199 182.85H28.1339ZM38.1677 186.252C35.6717 186.252 34.4237 185.388 34.4237 183.66C34.4237 183.42 34.4477 183.162 34.4957 182.886L34.8737 180.654C35.0777 179.502 35.6057 178.62 36.4577 178.008C37.3217 177.384 38.4617 177.072 39.8777 177.072C42.2897 177.072 43.4957 177.984 43.4957 179.808C43.4957 180.072 43.4717 180.36 43.4237 180.672L43.2077 181.95H37.7177L37.6457 182.364C37.6217 182.508 37.6097 182.64 37.6097 182.76C37.6097 183.42 37.9997 183.75 38.7797 183.75C39.0677 183.75 39.3137 183.66 39.5177 183.48C39.7217 183.3 39.8417 183.09 39.8777 182.85L42.8657 182.886C42.4697 185.13 40.9037 186.252 38.1677 186.252ZM40.3277 180.852C40.3757 180.648 40.3997 180.462 40.3997 180.294C40.3997 180.114 40.3217 179.934 40.1657 179.754C40.0097 179.574 39.7577 179.484 39.4097 179.484C39.0737 179.484 38.7617 179.598 38.4737 179.826C38.1977 180.054 38.0057 180.396 37.8977 180.852H40.3277ZM53.1934 179.178C53.1934 179.586 53.1214 179.982 52.9774 180.366C52.8454 180.75 52.7134 181.032 52.5814 181.212L52.3834 181.464H49.6654C49.9654 181.188 50.1154 180.846 50.1154 180.438C50.1154 180.222 50.0434 180.048 49.8994 179.916C49.7674 179.772 49.5814 179.7 49.3414 179.7C48.9334 179.7 48.5794 179.904 48.2794 180.312L47.2714 186H44.2114L45.7414 177.342H48.5854L48.3694 178.548C49.0534 177.576 49.8814 177.09 50.8534 177.09C51.6334 177.09 52.2154 177.276 52.5994 177.648C52.9954 178.02 53.1934 178.53 53.1934 179.178ZM66.7637 179.178C66.7637 179.586 66.6917 179.982 66.5477 180.366C66.4157 180.75 66.2837 181.032 66.1517 181.212L65.9537 181.464H63.2357C63.5357 181.188 63.6857 180.846 63.6857 180.438C63.6857 180.222 63.6137 180.048 63.4697 179.916C63.3377 179.772 63.1517 179.7 62.9117 179.7C62.5037 179.7 62.1497 179.904 61.8497 180.312L60.8417 186H57.7817L59.3117 177.342H62.1557L61.9397 178.548C62.6237 177.576 63.4517 177.09 64.4237 177.09C65.2037 177.09 65.7857 177.276 66.1697 177.648C66.5657 178.02 66.7637 178.53 66.7637 179.178ZM70.9158 186.252C68.4198 186.252 67.1718 185.388 67.1718 183.66C67.1718 183.42 67.1958 183.162 67.2438 182.886L67.6218 180.654C67.8258 179.502 68.3538 178.62 69.2058 178.008C70.0698 177.384 71.2098 177.072 72.6258 177.072C75.0378 177.072 76.2438 177.984 76.2438 179.808C76.2438 180.072 76.2198 180.36 76.1718 180.672L75.9558 181.95H70.4658L70.3938 182.364C70.3698 182.508 70.3578 182.64 70.3578 182.76C70.3578 183.42 70.7478 183.75 71.5278 183.75C71.8158 183.75 72.0618 183.66 72.2658 183.48C72.4698 183.3 72.5898 183.09 72.6258 182.85L75.6138 182.886C75.2178 185.13 73.6518 186.252 70.9158 186.252ZM73.0758 180.852C73.1238 180.648 73.1478 180.462 73.1478 180.294C73.1478 180.114 73.0698 179.934 72.9138 179.754C72.7578 179.574 72.5058 179.484 72.1578 179.484C71.8218 179.484 71.5098 179.598 71.2218 179.826C70.9458 180.054 70.7538 180.396 70.6458 180.852H73.0758ZM86.2114 179.214C86.2114 179.61 86.0914 179.976 85.8514 180.312H82.8994C82.9954 180.24 83.0434 180.12 83.0434 179.952C83.0434 179.784 82.9474 179.652 82.7554 179.556C82.5634 179.448 82.3174 179.394 82.0174 179.394C81.1174 179.394 80.6674 179.67 80.6674 180.222C80.6674 180.438 80.8354 180.594 81.1714 180.69C81.5074 180.786 81.9154 180.864 82.3954 180.924C82.8754 180.984 83.3554 181.074 83.8354 181.194C84.3154 181.302 84.7234 181.524 85.0594 181.86C85.3954 182.196 85.5634 182.646 85.5634 183.21C85.5634 184.206 85.1614 184.962 84.3574 185.478C83.5654 185.994 82.4074 186.252 80.8834 186.252C79.3594 186.252 78.2914 186.006 77.6794 185.514C77.1994 185.13 76.9594 184.602 76.9594 183.93C76.9594 183.738 76.9774 183.54 77.0134 183.336L80.0194 183.3C79.9954 183.468 80.0914 183.618 80.3074 183.75C80.5354 183.87 80.8654 183.93 81.2974 183.93C81.7294 183.93 82.0414 183.888 82.2334 183.804C82.4254 183.708 82.5214 183.534 82.5214 183.282C82.5214 183.114 82.3534 183 82.0174 182.94C81.6814 182.868 81.2674 182.808 80.7754 182.76C80.2954 182.712 79.8094 182.634 79.3174 182.526C78.8374 182.418 78.4294 182.19 78.0934 181.842C77.7574 181.494 77.5894 181.038 77.5894 180.474C77.5894 179.382 78.0094 178.542 78.8494 177.954C79.7014 177.366 80.9254 177.072 82.5214 177.072C84.9814 177.072 86.2114 177.786 86.2114 179.214ZM93.3363 177.108C94.5603 177.108 95.4063 177.432 95.8743 178.08C96.2103 178.524 96.3783 179.088 96.3783 179.772C96.3783 180.048 96.3483 180.342 96.2883 180.654L95.9283 182.76C95.7243 183.9 95.2863 184.77 94.6143 185.37C93.9423 185.958 93.1023 186.252 92.0943 186.252C91.0863 186.252 90.3843 185.982 89.9883 185.442L89.0163 191.004H85.9563L88.3683 177.342H91.1403L91.0503 177.828C91.6143 177.348 92.3763 177.108 93.3363 177.108ZM91.4643 183.66C91.8003 183.66 92.1123 183.552 92.4003 183.336C92.6883 183.12 92.8683 182.796 92.9403 182.364L93.1743 181.014C93.1983 180.894 93.2103 180.744 93.2103 180.564C93.2103 180.384 93.1323 180.192 92.9763 179.988C92.8203 179.784 92.5503 179.682 92.1663 179.682C91.5423 179.682 91.1343 179.832 90.9423 180.132L90.4023 183.156C90.5703 183.492 90.9243 183.66 91.4643 183.66ZM106.137 183.228C106.137 183.54 106.293 183.696 106.605 183.696C106.929 183.696 107.199 183.636 107.415 183.516L107.325 185.55C106.749 186.018 106.101 186.252 105.381 186.252C104.025 186.252 103.287 185.73 103.167 184.686C102.447 185.73 101.475 186.252 100.251 186.252C99.0394 186.252 98.2534 185.976 97.8934 185.424C97.6534 185.076 97.5334 184.68 97.5334 184.236C97.5334 183.792 97.5694 183.384 97.6414 183.012L98.6494 177.342H101.709L100.863 182.13C100.827 182.346 100.809 182.562 100.809 182.778C100.809 183.354 101.133 183.642 101.781 183.642C102.321 183.642 102.753 183.456 103.077 183.084L104.103 177.342H107.163L106.155 183.012C106.143 183.084 106.137 183.156 106.137 183.228ZM112.172 186.252C109.676 186.252 108.428 185.388 108.428 183.66C108.428 183.42 108.452 183.162 108.5 182.886L108.878 180.654C109.082 179.502 109.61 178.62 110.462 178.008C111.326 177.384 112.466 177.072 113.882 177.072C116.294 177.072 117.5 177.984 117.5 179.808C117.5 180.072 117.476 180.36 117.428 180.672L117.212 181.95H111.722L111.65 182.364C111.626 182.508 111.614 182.64 111.614 182.76C111.614 183.42 112.004 183.75 112.784 183.75C113.072 183.75 113.318 183.66 113.522 183.48C113.726 183.3 113.846 183.09 113.882 182.85L116.87 182.886C116.474 185.13 114.908 186.252 112.172 186.252ZM114.332 180.852C114.38 180.648 114.404 180.462 114.404 180.294C114.404 180.114 114.326 179.934 114.17 179.754C114.014 179.574 113.762 179.484 113.414 179.484C113.078 179.484 112.766 179.598 112.478 179.826C112.202 180.054 112.01 180.396 111.902 180.852H114.332ZM127.467 179.214C127.467 179.61 127.347 179.976 127.107 180.312H124.155C124.251 180.24 124.299 180.12 124.299 179.952C124.299 179.784 124.203 179.652 124.011 179.556C123.819 179.448 123.573 179.394 123.273 179.394C122.373 179.394 121.923 179.67 121.923 180.222C121.923 180.438 122.091 180.594 122.427 180.69C122.763 180.786 123.171 180.864 123.651 180.924C124.131 180.984 124.611 181.074 125.091 181.194C125.571 181.302 125.979 181.524 126.315 181.86C126.651 182.196 126.819 182.646 126.819 183.21C126.819 184.206 126.417 184.962 125.613 185.478C124.821 185.994 123.663 186.252 122.139 186.252C120.615 186.252 119.547 186.006 118.935 185.514C118.455 185.13 118.215 184.602 118.215 183.93C118.215 183.738 118.233 183.54 118.269 183.336L121.275 183.3C121.251 183.468 121.347 183.618 121.563 183.75C121.791 183.87 122.121 183.93 122.553 183.93C122.985 183.93 123.297 183.888 123.489 183.804C123.681 183.708 123.777 183.534 123.777 183.282C123.777 183.114 123.609 183 123.273 182.94C122.937 182.868 122.523 182.808 122.031 182.76C121.551 182.712 121.065 182.634 120.573 182.526C120.093 182.418 119.685 182.19 119.349 181.842C119.013 181.494 118.845 181.038 118.845 180.474C118.845 179.382 119.265 178.542 120.105 177.954C120.957 177.366 122.181 177.072 123.777 177.072C126.237 177.072 127.467 177.786 127.467 179.214ZM132.198 186.252C130.806 186.252 129.804 185.94 129.192 185.316C128.736 184.86 128.508 184.248 128.508 183.48C128.508 183.228 128.532 182.958 128.58 182.67L129.804 175.704L133.098 174.336L132.576 177.342H137.544L137.094 179.88H132.126L131.766 181.914C131.718 182.142 131.694 182.346 131.694 182.526C131.694 183.282 132.054 183.66 132.774 183.66C133.158 183.66 133.476 183.498 133.728 183.174C133.992 182.85 134.172 182.418 134.268 181.878H137.256C136.752 184.794 135.066 186.252 132.198 186.252ZM146.667 183.228C146.667 183.54 146.823 183.696 147.135 183.696C147.459 183.696 147.729 183.636 147.945 183.516L147.855 185.55C147.279 186.018 146.631 186.252 145.911 186.252C144.591 186.252 143.859 185.772 143.715 184.812C143.115 185.772 142.233 186.252 141.069 186.252C139.101 186.252 138.117 185.406 138.117 183.714C138.117 183.426 138.147 183.108 138.207 182.76L138.585 180.654C138.777 179.574 139.215 178.716 139.899 178.08C140.595 177.432 141.495 177.108 142.599 177.108C143.715 177.108 144.471 177.366 144.867 177.882L144.957 177.342H147.693L146.685 183.012C146.673 183.084 146.667 183.156 146.667 183.228ZM141.339 182.364C141.315 182.472 141.303 182.622 141.303 182.814C141.303 183.006 141.393 183.198 141.573 183.39C141.753 183.57 142.053 183.66 142.473 183.66C142.905 183.66 143.277 183.492 143.589 183.156L144.129 180.132C143.997 179.832 143.685 179.682 143.193 179.682C142.269 179.682 141.729 180.126 141.573 181.014L141.339 182.364ZM158.053 179.214C158.053 179.61 157.933 179.976 157.693 180.312H154.741C154.837 180.24 154.885 180.12 154.885 179.952C154.885 179.784 154.789 179.652 154.597 179.556C154.405 179.448 154.159 179.394 153.859 179.394C152.959 179.394 152.509 179.67 152.509 180.222C152.509 180.438 152.677 180.594 153.013 180.69C153.349 180.786 153.757 180.864 154.237 180.924C154.717 180.984 155.197 181.074 155.677 181.194C156.157 181.302 156.565 181.524 156.901 181.86C157.237 182.196 157.405 182.646 157.405 183.21C157.405 184.206 157.003 184.962 156.199 185.478C155.407 185.994 154.249 186.252 152.725 186.252C151.201 186.252 150.133 186.006 149.521 185.514C149.041 185.13 148.801 184.602 148.801 183.93C148.801 183.738 148.819 183.54 148.855 183.336L151.861 183.3C151.837 183.468 151.933 183.618 152.149 183.75C152.377 183.87 152.707 183.93 153.139 183.93C153.571 183.93 153.883 183.888 154.075 183.804C154.267 183.708 154.363 183.534 154.363 183.282C154.363 183.114 154.195 183 153.859 182.94C153.523 182.868 153.109 182.808 152.617 182.76C152.137 182.712 151.651 182.634 151.159 182.526C150.679 182.418 150.271 182.19 149.935 181.842C149.599 181.494 149.431 181.038 149.431 180.474C149.431 179.382 149.851 178.542 150.691 177.954C151.543 177.366 152.767 177.072 154.363 177.072C156.823 177.072 158.053 177.786 158.053 179.214Z" fill="#5B5B5B"/>
<path d="M58.4 104.1C58.4 105.833 59.0667 107.233 60.4 108.3C61.8 109.367 64.0333 109.9 67.1 109.9C70.1667 109.9 72.7333 108.933 74.8 107C76.9333 105 78 102.533 78 99.6C78 96.6667 77.2333 94.3667 75.7 92.7C74.2333 90.9667 72.4 90.1 70.2 90.1C66.2667 90.1 63.2333 90.9667 61.1 92.7L60 93.6H42.9L50.2 52H99.1L96.3 67.7H64.4L62.7 77.6C65.6333 76.0667 70.0333 75.3 75.9 75.3C81.8333 75.3 86.7 77.1333 90.5 80.8C94.3667 84.4667 96.3 89.4333 96.3 95.7C96.3 104.5 93.6333 111.667 88.3 117.2C82.9667 122.667 75.2333 125.4 65.1 125.4C54.9667 125.4 48 123.533 44.2 119.8C41.4 117.067 40 113.233 40 108.3C40 106.567 40.1667 104.7 40.5 102.7H58.5C58.4333 103.167 58.4 103.633 58.4 104.1ZM109.973 111.156C111.741 111.156 112.963 111.624 113.639 112.56C114.124 113.201 114.367 114.016 114.367 115.004C114.367 115.403 114.324 115.827 114.237 116.278L113.717 119.32C113.422 120.967 112.79 122.223 111.819 123.09C110.848 123.939 109.635 124.364 108.179 124.364C106.723 124.364 105.709 123.974 105.137 123.194L103.733 131.228H99.3129L102.797 111.494H106.801L106.671 112.196C107.486 111.503 108.586 111.156 109.973 111.156ZM107.269 120.62C107.754 120.62 108.205 120.464 108.621 120.152C109.037 119.84 109.297 119.372 109.401 118.748L109.739 116.798C109.774 116.625 109.791 116.408 109.791 116.148C109.791 115.888 109.678 115.611 109.453 115.316C109.228 115.021 108.838 114.874 108.283 114.874C107.382 114.874 106.792 115.091 106.515 115.524L105.735 119.892C105.978 120.377 106.489 120.62 107.269 120.62ZM121.495 124.364C119.485 124.364 118.037 123.913 117.153 123.012C116.495 122.353 116.165 121.469 116.165 120.36C116.165 119.996 116.2 119.606 116.269 119.19L118.037 109.128L122.795 107.152L122.041 111.494H129.217L128.567 115.16H121.391L120.871 118.098C120.802 118.427 120.767 118.722 120.767 118.982C120.767 120.074 121.287 120.62 122.327 120.62C122.882 120.62 123.341 120.386 123.705 119.918C124.087 119.45 124.347 118.826 124.485 118.046H128.801C128.073 122.258 125.638 124.364 121.495 124.364ZM143.201 114.198C143.201 114.77 143.028 115.299 142.681 115.784H138.417C138.556 115.68 138.625 115.507 138.625 115.264C138.625 115.021 138.486 114.831 138.209 114.692C137.932 114.536 137.576 114.458 137.143 114.458C135.843 114.458 135.193 114.857 135.193 115.654C135.193 115.966 135.436 116.191 135.921 116.33C136.406 116.469 136.996 116.581 137.689 116.668C138.382 116.755 139.076 116.885 139.769 117.058C140.462 117.214 141.052 117.535 141.537 118.02C142.022 118.505 142.265 119.155 142.265 119.97C142.265 121.409 141.684 122.501 140.523 123.246C139.379 123.991 137.706 124.364 135.505 124.364C133.304 124.364 131.761 124.009 130.877 123.298C130.184 122.743 129.837 121.981 129.837 121.01C129.837 120.733 129.863 120.447 129.915 120.152L134.257 120.1C134.222 120.343 134.361 120.559 134.673 120.75C135.002 120.923 135.479 121.01 136.103 121.01C136.727 121.01 137.178 120.949 137.455 120.828C137.732 120.689 137.871 120.438 137.871 120.074C137.871 119.831 137.628 119.667 137.143 119.58C136.658 119.476 136.06 119.389 135.349 119.32C134.656 119.251 133.954 119.138 133.243 118.982C132.55 118.826 131.96 118.497 131.475 117.994C130.99 117.491 130.747 116.833 130.747 116.018C130.747 114.441 131.354 113.227 132.567 112.378C133.798 111.529 135.566 111.104 137.871 111.104C141.424 111.104 143.201 112.135 143.201 114.198Z" fill="#F3F3F3"/>
<defs>
<filter id="filter0_d_126_163" x="0" y="159" width="181" height="50" filterUnits="userSpaceOnUse" color-interpolation-filters="sRGB">
<feFlood flood-opacity="0" result="BackgroundImageFix"/>
<feColorMatrix in="SourceAlpha" type="matrix" values="0 0 0 0 0 0 0 0 0 0 0 0 0 0 0 0 0 0 127 0" result="hardAlpha"/>
<feOffset dy="4"/>
<feGaussianBlur stdDeviation="2"/>
<feComposite in2="hardAlpha" operator="out"/>
<feColorMatrix type="matrix" values="0 0 0 0 0 0 0 0 0 0 0 0 0 0 0 0 0 0 0.25 0"/>
<feBlend mode="normal" in2="BackgroundImageFix" result="effect1_dropShadow_126_163"/>
<feBlend mode="normal" in="SourceGraphic" in2="effect1_dropShadow_126_163" result="shape"/>
</filter>
</defs>
</svg>
