<svg width="161" height="67" viewBox="0 0 161 67" fill="none" xmlns="http://www.w3.org/2000/svg">
<path d="M6.426 15.058H4.284L3.582 19H0.342L2.628 6.04H8.118C9.474 6.04 10.44 6.352 11.016 6.976C11.436 7.456 11.646 8.068 11.646 8.812C11.646 9.064 11.622 9.328 11.574 9.604L11.214 11.638C11.034 12.634 10.506 13.456 9.63 14.104C8.754 14.74 7.686 15.058 6.426 15.058ZM6.984 8.848H5.364L4.77 12.25H6.372C7.356 12.25 7.926 11.812 8.082 10.936L8.208 10.198C8.232 10.09 8.244 9.946 8.244 9.766C8.244 9.586 8.154 9.388 7.974 9.172C7.794 8.956 7.464 8.848 6.984 8.848ZM20.6045 12.178C20.6045 12.586 20.5325 12.982 20.3885 13.366C20.2565 13.75 20.1245 14.032 19.9925 14.212L19.7945 14.464H17.0765C17.3765 14.188 17.5265 13.846 17.5265 13.438C17.5265 13.222 17.4545 13.048 17.3105 12.916C17.1785 12.772 16.9925 12.7 16.7525 12.7C16.3445 12.7 15.9905 12.904 15.6905 13.312L14.6825 19H11.6225L13.1525 10.342H15.9965L15.7805 11.548C16.4645 10.576 17.2925 10.09 18.2645 10.09C19.0445 10.09 19.6265 10.276 20.0105 10.648C20.4065 11.02 20.6045 11.53 20.6045 12.178ZM26.5026 10.09C27.7986 10.09 28.7766 10.372 29.4366 10.936C29.9526 11.38 30.2106 11.998 30.2106 12.79C30.2106 13.054 30.1806 13.342 30.1206 13.654L29.7426 15.76C29.5146 17.032 28.9806 17.932 28.1406 18.46C27.3126 18.988 26.2026 19.252 24.8106 19.252C23.4186 19.252 22.3986 18.988 21.7506 18.46C21.2706 18.064 21.0306 17.47 21.0306 16.678C21.0306 16.402 21.0606 16.096 21.1206 15.76L21.4986 13.654C21.9186 11.278 23.5866 10.09 26.5026 10.09ZM26.9886 14.014C27.0126 13.894 27.0246 13.744 27.0246 13.564C27.0246 13.372 26.9466 13.162 26.7906 12.934C26.6346 12.706 26.3586 12.592 25.9626 12.592C25.5786 12.592 25.2546 12.724 24.9906 12.988C24.7266 13.24 24.5586 13.582 24.4866 14.014L24.2526 15.364C24.2286 15.484 24.2166 15.64 24.2166 15.832C24.2166 16.012 24.2946 16.21 24.4506 16.426C24.6066 16.642 24.8766 16.75 25.2606 16.75C25.6566 16.75 25.9866 16.618 26.2506 16.354C26.5146 16.078 26.6826 15.748 26.7546 15.364L26.9886 14.014ZM39.9644 19H36.6164L35.3384 16.498L33.1784 19H29.8304L33.7184 14.572L31.3784 10.216H34.7804L36.0044 12.682L38.1104 10.216H41.5124L37.6064 14.59L39.9644 19ZM45.2741 16.696C45.5501 16.696 45.7961 16.636 46.0121 16.516L45.9221 18.55C45.3581 19.018 44.7161 19.252 43.9961 19.252C42.9041 19.252 42.1961 19 41.8721 18.496C41.6561 18.16 41.5481 17.806 41.5481 17.434C41.5481 17.05 41.5721 16.714 41.6201 16.426L42.7001 10.342H45.7601L44.7521 16.012C44.7401 16.084 44.7341 16.15 44.7341 16.21C44.7341 16.534 44.9141 16.696 45.2741 16.696ZM43.0601 7.408C43.0601 6.64 43.2281 6.082 43.5641 5.734C43.9121 5.374 44.4461 5.194 45.1661 5.194C46.1741 5.194 46.6781 5.638 46.6781 6.526C46.6781 7.282 46.5041 7.834 46.1561 8.182C45.8201 8.53 45.2861 8.704 44.5541 8.704C43.5581 8.704 43.0601 8.272 43.0601 7.408ZM62.0227 16.696C62.2987 16.696 62.5447 16.636 62.7607 16.516L62.6707 18.55C62.1067 19.018 61.4647 19.252 60.7447 19.252C59.1127 19.252 58.2967 18.568 58.2967 17.2C58.2967 16.96 58.3207 16.702 58.3687 16.426L58.7467 14.212C58.7827 13.996 58.8007 13.78 58.8007 13.564C58.8007 12.988 58.4827 12.7 57.8467 12.7C57.2227 12.7 56.7307 12.946 56.3707 13.438L55.3987 19H52.3387L53.1847 14.212C53.2207 13.996 53.2387 13.78 53.2387 13.564C53.2387 12.988 52.9147 12.7 52.2667 12.7C51.7507 12.7 51.3067 12.898 50.9347 13.294L49.9267 19H46.8667L48.3967 10.342H51.2407L51.0427 11.422C51.7627 10.534 52.6747 10.09 53.7787 10.09C55.3387 10.09 56.2267 10.606 56.4427 11.638C57.1627 10.606 58.1227 10.09 59.3227 10.09C60.5347 10.09 61.3207 10.36 61.6807 10.9C61.9207 11.272 62.0407 11.68 62.0407 12.124C62.0407 12.568 62.0107 12.97 61.9507 13.33L61.5007 16.012C61.4887 16.084 61.4827 16.15 61.4827 16.21C61.4827 16.534 61.6627 16.696 62.0227 16.696ZM72.2599 16.228C72.2599 16.54 72.4159 16.696 72.7279 16.696C73.0519 16.696 73.3219 16.636 73.5379 16.516L73.4479 18.55C72.8719 19.018 72.2239 19.252 71.5039 19.252C70.1839 19.252 69.4519 18.772 69.3079 17.812C68.7079 18.772 67.8259 19.252 66.6619 19.252C64.6939 19.252 63.7099 18.406 63.7099 16.714C63.7099 16.426 63.7399 16.108 63.7999 15.76L64.1779 13.654C64.3699 12.574 64.8079 11.716 65.4919 11.08C66.1879 10.432 67.0879 10.108 68.1919 10.108C69.3079 10.108 70.0639 10.366 70.4599 10.882L70.5499 10.342H73.2859L72.2779 16.012C72.2659 16.084 72.2599 16.156 72.2599 16.228ZM66.9319 15.364C66.9079 15.472 66.8959 15.622 66.8959 15.814C66.8959 16.006 66.9859 16.198 67.1659 16.39C67.3459 16.57 67.6459 16.66 68.0659 16.66C68.4979 16.66 68.8699 16.492 69.1819 16.156L69.7219 13.132C69.5899 12.832 69.2779 12.682 68.7859 12.682C67.8619 12.682 67.3219 13.126 67.1659 14.014L66.9319 15.364ZM86.8002 19.324C86.8002 21.076 86.3502 22.51 85.4502 23.626C84.5622 24.754 83.3502 25.318 81.8142 25.318C80.2902 25.318 79.2762 24.94 78.7722 24.184C78.4602 23.704 78.3042 23.116 78.3042 22.42C78.3042 21.736 78.3642 21.052 78.4842 20.368L80.7882 7.336H83.8482L83.3082 10.342H87.7902L87.3402 12.88H83.8122C84.6642 13.564 85.3722 14.452 85.9362 15.544C86.5122 16.636 86.8002 17.896 86.8002 19.324ZM82.2822 22.744C82.6542 22.744 82.9722 22.444 83.2362 21.844C83.5002 21.244 83.6322 20.452 83.6322 19.468C83.6322 18.496 83.5302 17.512 83.3262 16.516C83.1342 15.52 82.9002 14.74 82.6242 14.176L81.5442 20.35C81.4722 20.77 81.4362 21.136 81.4362 21.448C81.4362 22.312 81.7182 22.744 82.2822 22.744ZM91.9402 19.252C89.4442 19.252 88.1962 18.388 88.1962 16.66C88.1962 16.42 88.2202 16.162 88.2682 15.886L88.6462 13.654C88.8502 12.502 89.3782 11.62 90.2302 11.008C91.0942 10.384 92.2342 10.072 93.6502 10.072C96.0622 10.072 97.2682 10.984 97.2682 12.808C97.2682 13.072 97.2442 13.36 97.1962 13.672L96.9802 14.95H91.4902L91.4182 15.364C91.3942 15.508 91.3822 15.64 91.3822 15.76C91.3822 16.42 91.7722 16.75 92.5522 16.75C92.8402 16.75 93.0862 16.66 93.2902 16.48C93.4942 16.3 93.6142 16.09 93.6502 15.85L96.6382 15.886C96.2422 18.13 94.6762 19.252 91.9402 19.252ZM94.1002 13.852C94.1482 13.648 94.1722 13.462 94.1722 13.294C94.1722 13.114 94.0942 12.934 93.9382 12.754C93.7822 12.574 93.5302 12.484 93.1822 12.484C92.8462 12.484 92.5342 12.598 92.2462 12.826C91.9702 13.054 91.7782 13.396 91.6702 13.852H94.1002ZM101.872 19.252C99.3758 19.252 98.1278 18.388 98.1278 16.66C98.1278 16.42 98.1518 16.162 98.1998 15.886L98.5778 13.654C98.7698 12.502 99.2918 11.62 100.144 11.008C101.008 10.396 102.1 10.084 103.42 10.072C105.976 10.072 107.254 10.96 107.254 12.736C107.254 13.12 107.206 13.468 107.11 13.78C107.026 14.08 106.936 14.284 106.84 14.392L106.696 14.572H103.636C103.936 14.308 104.086 13.996 104.086 13.636C104.086 12.988 103.762 12.664 103.114 12.664C102.73 12.664 102.4 12.778 102.124 13.006C101.848 13.234 101.668 13.582 101.584 14.05L101.35 15.364C101.326 15.484 101.314 15.598 101.314 15.706C101.314 16.342 101.71 16.66 102.502 16.66C102.766 16.66 103 16.576 103.204 16.408C103.42 16.24 103.546 16.054 103.582 15.85L106.57 15.886C106.174 18.13 104.608 19.252 101.872 19.252ZM117.474 16.696C117.75 16.696 117.996 16.636 118.212 16.516L118.122 18.55C117.558 19.018 116.916 19.252 116.196 19.252C114.564 19.252 113.748 18.568 113.748 17.2C113.748 16.96 113.772 16.702 113.82 16.426L114.216 14.212C114.252 13.996 114.27 13.78 114.27 13.564C114.27 12.988 113.964 12.7 113.352 12.7C112.752 12.7 112.284 12.904 111.948 13.312L110.94 19H107.88L110.292 5.338H113.352L112.326 11.152C112.986 10.444 113.814 10.09 114.81 10.09C116.022 10.09 116.808 10.36 117.168 10.9C117.42 11.26 117.546 11.662 117.546 12.106C117.546 12.55 117.51 12.958 117.438 13.33L116.952 16.012C116.94 16.084 116.934 16.15 116.934 16.21C116.934 16.534 117.114 16.696 117.474 16.696ZM127.719 16.228C127.719 16.54 127.875 16.696 128.187 16.696C128.511 16.696 128.781 16.636 128.997 16.516L128.907 18.55C128.331 19.018 127.683 19.252 126.963 19.252C125.643 19.252 124.911 18.772 124.767 17.812C124.167 18.772 123.285 19.252 122.121 19.252C120.153 19.252 119.169 18.406 119.169 16.714C119.169 16.426 119.199 16.108 119.259 15.76L119.637 13.654C119.829 12.574 120.267 11.716 120.951 11.08C121.647 10.432 122.547 10.108 123.651 10.108C124.767 10.108 125.523 10.366 125.919 10.882L126.009 10.342H128.745L127.737 16.012C127.725 16.084 127.719 16.156 127.719 16.228ZM122.391 15.364C122.367 15.472 122.355 15.622 122.355 15.814C122.355 16.006 122.445 16.198 122.625 16.39C122.805 16.57 123.105 16.66 123.525 16.66C123.957 16.66 124.329 16.492 124.641 16.156L125.181 13.132C125.049 12.832 124.737 12.682 124.245 12.682C123.321 12.682 122.781 13.126 122.625 14.014L122.391 15.364ZM138.065 19.252C135.569 19.252 134.321 18.388 134.321 16.66C134.321 16.42 134.345 16.162 134.393 15.886L134.771 13.654C134.975 12.502 135.503 11.62 136.355 11.008C137.219 10.384 138.359 10.072 139.775 10.072C142.187 10.072 143.393 10.984 143.393 12.808C143.393 13.072 143.369 13.36 143.321 13.672L143.105 14.95H137.615L137.543 15.364C137.519 15.508 137.507 15.64 137.507 15.76C137.507 16.42 137.897 16.75 138.677 16.75C138.965 16.75 139.211 16.66 139.415 16.48C139.619 16.3 139.739 16.09 139.775 15.85L142.763 15.886C142.367 18.13 140.801 19.252 138.065 19.252ZM140.225 13.852C140.273 13.648 140.297 13.462 140.297 13.294C140.297 13.114 140.219 12.934 140.063 12.754C139.907 12.574 139.655 12.484 139.307 12.484C138.971 12.484 138.659 12.598 138.371 12.826C138.095 13.054 137.903 13.396 137.795 13.852H140.225ZM150.157 13.474C150.157 12.958 149.905 12.7 149.401 12.7C148.909 12.7 148.501 12.886 148.177 13.258L147.169 19H144.109L145.639 10.342H148.483L148.285 11.404C148.993 10.528 149.887 10.09 150.967 10.09C152.047 10.09 152.749 10.354 153.073 10.882C153.277 11.218 153.379 11.602 153.379 12.034C153.379 12.466 153.349 12.868 153.289 13.24L152.803 16.012C152.791 16.084 152.785 16.15 152.785 16.21C152.785 16.534 152.965 16.696 153.325 16.696C153.601 16.696 153.847 16.636 154.063 16.516L153.973 18.55C153.409 19.018 152.767 19.252 152.047 19.252C150.415 19.252 149.599 18.568 149.599 17.2C149.599 16.96 149.623 16.702 149.671 16.426L150.103 14.032C150.139 13.816 150.157 13.63 150.157 13.474ZM155.047 17.956C155.047 17.188 155.215 16.63 155.551 16.282C155.887 15.922 156.421 15.742 157.153 15.742C158.161 15.742 158.665 16.186 158.665 17.074C158.665 17.83 158.491 18.382 158.143 18.73C157.807 19.078 157.273 19.252 156.541 19.252C155.545 19.252 155.047 18.82 155.047 17.956ZM156.037 12.286C156.037 11.518 156.205 10.96 156.541 10.612C156.889 10.252 157.369 10.072 157.981 10.072C158.593 10.072 159.025 10.18 159.277 10.396C159.529 10.6 159.655 10.936 159.655 11.404C159.655 12.16 159.481 12.712 159.133 13.06C158.797 13.408 158.263 13.582 157.531 13.582C156.535 13.582 156.037 13.15 156.037 12.286Z" fill="#EDEDED"/>
<path d="M15.396 34.644C19.8013 34.644 22.004 36.6227 22.004 40.58C22.004 41.308 21.9293 42.1107 21.78 42.988L21.108 46.908C20.6227 49.764 19.6147 51.892 18.084 53.292C16.572 54.692 14.4627 55.392 11.756 55.392C9.068 55.392 7.21067 54.7013 6.184 53.32C5.49333 52.368 5.148 51.08 5.148 49.456C5.148 48.672 5.22267 47.8227 5.372 46.908L6.044 42.988C7.01467 37.4253 10.132 34.644 15.396 34.644ZM10.244 48.588C10.244 50.2307 11 51.052 12.512 51.052C13.4453 51.052 14.2013 50.744 14.78 50.128C15.3773 49.512 15.816 48.4013 16.096 46.796L16.74 43.1C16.852 42.484 16.908 41.952 16.908 41.504C16.908 39.824 16.1613 38.984 14.668 38.984C12.764 39.0213 11.5693 40.3933 11.084 43.1L10.412 46.796C10.3 47.4867 10.244 48.084 10.244 48.588ZM34.2437 43.184C35.8677 43.184 37.0811 43.6133 37.8837 44.472C38.7051 45.312 39.1157 46.4227 39.1157 47.804C39.1157 50.1933 38.3877 52.06 36.9317 53.404C35.4757 54.7293 33.3104 55.392 30.4357 55.392C27.5611 55.392 25.6104 54.8133 24.5837 53.656C23.8744 52.8347 23.5197 51.6867 23.5197 50.212C23.5197 49.5773 23.5851 48.896 23.7157 48.168L24.8637 41.728C25.7037 37.0053 28.6904 34.644 33.8237 34.644C36.0077 34.644 37.6597 35.036 38.7797 35.82C39.8997 36.5853 40.4597 37.6587 40.4597 39.04C40.4597 39.5813 40.3757 40.104 40.2077 40.608C40.0584 41.0933 39.8997 41.448 39.7317 41.672L39.4797 42.008H34.5237C34.9717 41.5413 35.1957 40.9627 35.1957 40.272C35.1957 39.4133 34.4771 38.984 33.0397 38.984C31.2664 38.984 30.1931 40.0293 29.8197 42.12L29.6237 43.184H34.2437ZM31.8637 46.964H28.9797L28.8397 47.776C28.7651 48.2427 28.7277 48.7093 28.7277 49.176C28.7277 50.4267 29.4557 51.052 30.9117 51.052C32.9464 51.052 33.9637 50.268 33.9637 48.7C33.9637 47.5427 33.2637 46.964 31.8637 46.964ZM41.1173 53.376C41.1173 52.1813 41.3786 51.3133 41.9013 50.772C42.4239 50.212 43.2546 49.932 44.3933 49.932C45.9613 49.932 46.7453 50.6227 46.7453 52.004C46.7453 53.18 46.4746 54.0387 45.9333 54.58C45.4106 55.1213 44.5799 55.392 43.4413 55.392C41.8919 55.392 41.1173 54.72 41.1173 53.376ZM42.6573 44.556C42.6573 43.3613 42.9186 42.4933 43.4413 41.952C43.9826 41.392 44.7293 41.112 45.6813 41.112C46.6333 41.112 47.3053 41.28 47.6973 41.616C48.0893 41.9333 48.2853 42.456 48.2853 43.184C48.2853 44.36 48.0146 45.2187 47.4733 45.76C46.9506 46.3013 46.1199 46.572 44.9813 46.572C43.4319 46.572 42.6573 45.9 42.6573 44.556ZM56.2806 42.624C56.2806 43.1653 56.3459 43.5667 56.4766 43.828H51.5206C51.4086 43.38 51.3526 42.8013 51.3526 42.092C51.3526 39.8333 52.1086 38.032 53.6206 36.688C55.1513 35.3253 57.3353 34.644 60.1726 34.644C64.7086 34.644 66.9766 36.4733 66.9766 40.132C66.9766 41.4387 66.6593 42.6613 66.0246 43.8C65.3899 44.92 64.6153 45.844 63.7006 46.572C62.7859 47.2813 61.8713 47.9067 60.9566 48.448C60.0419 48.9707 59.2486 49.4187 58.5766 49.792C57.9046 50.1467 57.5406 50.4173 57.4846 50.604V50.632H64.9606L64.1766 55H49.5326L49.8966 52.928C50.1019 51.752 50.5499 50.7067 51.2406 49.792C51.9313 48.8587 52.7153 48.1307 53.5926 47.608C54.4699 47.0853 55.3939 46.572 56.3646 46.068C57.3539 45.5453 58.2499 45.088 59.0526 44.696C59.8553 44.2853 60.5179 43.7627 61.0406 43.128C61.5819 42.4933 61.8526 41.784 61.8526 41C61.8526 39.656 61.0966 38.984 59.5846 38.984C58.5393 38.984 57.7273 39.32 57.1486 39.992C56.5699 40.6453 56.2806 41.5227 56.2806 42.624ZM73.9134 55H68.8734C69.172 53.3573 69.6574 51.7707 70.3294 50.24C71.02 48.7093 71.7574 47.4027 72.5414 46.32C73.3254 45.2373 74.0907 44.2573 74.8374 43.38C75.6027 42.484 76.256 41.6813 76.7974 40.972C77.3387 40.244 77.6467 39.656 77.7214 39.208H69.1254L69.9094 34.84H84.5534L84.1894 36.912C83.8347 38.984 82.6027 41.2147 80.4934 43.604C79.6347 44.5933 78.7667 45.62 77.8894 46.684C77.012 47.7293 76.2 48.9707 75.4534 50.408C74.7067 51.8453 74.1934 53.376 73.9134 55ZM83.5821 53.376C83.5821 52.1813 83.8435 51.3133 84.3661 50.772C84.8888 50.212 85.7195 49.932 86.8581 49.932C88.4261 49.932 89.2101 50.6227 89.2101 52.004C89.2101 53.18 88.9395 54.0387 88.3981 54.58C87.8755 55.1213 87.0448 55.392 85.9061 55.392C84.3568 55.392 83.5821 54.72 83.5821 53.376ZM85.1221 44.556C85.1221 43.3613 85.3835 42.4933 85.9061 41.952C86.4475 41.392 87.1941 41.112 88.1461 41.112C89.0981 41.112 89.7701 41.28 90.1621 41.616C90.5541 41.9333 90.7501 42.456 90.7501 43.184C90.7501 44.36 90.4795 45.2187 89.9381 45.76C89.4155 46.3013 88.5848 46.572 87.4461 46.572C85.8968 46.572 85.1221 45.9 85.1221 44.556ZM102.525 55H97.4574L99.8374 41.56C99.3894 42.288 98.5681 42.988 97.3734 43.66C96.1788 44.332 94.9281 44.668 93.6214 44.668L93.2574 39.964C95.0121 39.964 96.6548 39.432 98.1854 38.368C99.7161 37.2853 100.659 36.1093 101.013 34.84H106.053L102.525 55ZM118.454 55H113.47L114.086 51.444H106.134L107.282 44.976L115.206 35.4H120.526L112.434 45.788L112.154 47.412H115.15L115.85 43.576H120.47L119.77 47.412H122.542L121.842 51.444H119.07L118.454 55ZM138.503 51.416C138.933 51.416 139.315 51.3227 139.651 51.136L139.511 54.3C138.634 55.028 137.635 55.392 136.515 55.392C133.977 55.392 132.707 54.328 132.707 52.2C132.707 51.8267 132.745 51.4253 132.819 50.996L133.435 47.552C133.491 47.216 133.519 46.88 133.519 46.544C133.519 45.648 133.043 45.2 132.091 45.2C131.158 45.2 130.43 45.5173 129.907 46.152L128.339 55H123.579L127.331 33.748H132.091L130.495 42.792C131.522 41.6907 132.81 41.14 134.359 41.14C136.245 41.14 137.467 41.56 138.027 42.4C138.419 42.96 138.615 43.5853 138.615 44.276C138.615 44.9667 138.559 45.6013 138.447 46.18L137.691 50.352C137.673 50.464 137.663 50.5667 137.663 50.66C137.663 51.164 137.943 51.416 138.503 51.416ZM155.307 44.444C155.307 45.06 155.121 45.6293 154.747 46.152H150.155C150.305 46.04 150.379 45.8533 150.379 45.592C150.379 45.3307 150.23 45.1253 149.931 44.976C149.633 44.808 149.25 44.724 148.783 44.724C147.383 44.724 146.683 45.1533 146.683 46.012C146.683 46.348 146.945 46.5907 147.467 46.74C147.99 46.8893 148.625 47.0107 149.371 47.104C150.118 47.1973 150.865 47.3373 151.611 47.524C152.358 47.692 152.993 48.0373 153.515 48.56C154.038 49.0827 154.299 49.7827 154.299 50.66C154.299 52.2093 153.674 53.3853 152.423 54.188C151.191 54.9907 149.39 55.392 147.019 55.392C144.649 55.392 142.987 55.0093 142.035 54.244C141.289 53.6467 140.915 52.8253 140.915 51.78C140.915 51.4813 140.943 51.1733 140.999 50.856L145.675 50.8C145.638 51.0613 145.787 51.2947 146.123 51.5C146.478 51.6867 146.991 51.78 147.663 51.78C148.335 51.78 148.821 51.7147 149.119 51.584C149.418 51.4347 149.567 51.164 149.567 50.772C149.567 50.5107 149.306 50.3333 148.783 50.24C148.261 50.128 147.617 50.0347 146.851 49.96C146.105 49.8853 145.349 49.764 144.583 49.596C143.837 49.428 143.202 49.0733 142.679 48.532C142.157 47.9907 141.895 47.2813 141.895 46.404C141.895 44.7053 142.549 43.3987 143.855 42.484C145.181 41.5693 147.085 41.112 149.567 41.112C153.394 41.112 155.307 42.2227 155.307 44.444Z" fill="#EDEDED"/>
</svg>
