<svg width="187" height="99" viewBox="0 0 187 99" fill="none" xmlns="http://www.w3.org/2000/svg">
<path d="M37.528 25.336C35.24 25.336 33.656 24.84 32.776 23.848C32.168 23.144 31.864 22.16 31.864 20.896C31.864 20.352 31.92 19.768 32.032 19.144L33.016 13.624C33.736 9.576 36.336 7.552 40.816 7.552C42.672 7.552 44.08 7.952 45.04 8.752C46 9.536 46.48 10.616 46.48 11.992C46.48 12.632 46.384 13.272 46.192 13.912C46.016 14.536 45.84 15 45.664 15.304L45.4 15.784H41.152C41.68 15.176 41.944 14.312 41.944 13.192C41.944 12.6 41.792 12.136 41.488 11.8C41.184 11.448 40.736 11.272 40.144 11.272C38.528 11.272 37.568 12.168 37.264 13.96L36.424 18.808C36.344 19.224 36.304 19.632 36.304 20.032C36.304 21.088 36.936 21.616 38.2 21.616C39.72 21.616 40.632 20.76 40.936 19.048H45.256L45.136 19.744C44.496 23.472 41.96 25.336 37.528 25.336ZM54.2431 13.12C55.9711 13.12 57.2751 13.496 58.1551 14.248C58.8431 14.84 59.1871 15.664 59.1871 16.72C59.1871 17.072 59.1471 17.456 59.0671 17.872L58.5631 20.68C58.2591 22.376 57.5471 23.576 56.4271 24.28C55.3231 24.984 53.8431 25.336 51.9871 25.336C50.1311 25.336 48.7711 24.984 47.9071 24.28C47.2671 23.752 46.9471 22.96 46.9471 21.904C46.9471 21.536 46.9871 21.128 47.0671 20.68L47.5711 17.872C48.1311 14.704 50.3551 13.12 54.2431 13.12ZM54.8911 18.352C54.9231 18.192 54.9391 17.992 54.9391 17.752C54.9391 17.496 54.8351 17.216 54.6271 16.912C54.4191 16.608 54.0511 16.456 53.5231 16.456C53.0111 16.456 52.5791 16.632 52.2271 16.984C51.8751 17.32 51.6511 17.776 51.5551 18.352L51.2431 20.152C51.2111 20.312 51.1951 20.52 51.1951 20.776C51.1951 21.016 51.2991 21.28 51.5071 21.568C51.7151 21.856 52.0751 22 52.5871 22C53.1151 22 53.5551 21.824 53.9071 21.472C54.2591 21.104 54.4831 20.664 54.5791 20.152L54.8911 18.352ZM80.4859 21.928C80.8539 21.928 81.1819 21.848 81.4699 21.688L81.3499 24.4C80.5979 25.024 79.7419 25.336 78.7819 25.336C76.6059 25.336 75.5179 24.424 75.5179 22.6C75.5179 22.28 75.5499 21.936 75.6139 21.568L76.1179 18.616C76.1659 18.328 76.1899 18.04 76.1899 17.752C76.1899 16.984 75.7659 16.6 74.9179 16.6C74.0859 16.6 73.4299 16.928 72.9499 17.584L71.6539 25H67.5739L68.7019 18.616C68.7499 18.328 68.7739 18.04 68.7739 17.752C68.7739 16.984 68.3419 16.6 67.4779 16.6C66.7899 16.6 66.1979 16.864 65.7019 17.392L64.3579 25H60.2779L62.3179 13.456H66.1099L65.8459 14.896C66.8059 13.712 68.0219 13.12 69.4939 13.12C71.5739 13.12 72.7579 13.808 73.0459 15.184C74.0059 13.808 75.2859 13.12 76.8859 13.12C78.5019 13.12 79.5499 13.48 80.0299 14.2C80.3499 14.696 80.5099 15.24 80.5099 15.832C80.5099 16.424 80.4699 16.96 80.3899 17.44L79.7899 21.016C79.7739 21.112 79.7659 21.2 79.7659 21.28C79.7659 21.712 80.0059 21.928 80.4859 21.928ZM91.2076 13.144C92.8396 13.144 93.9676 13.576 94.5916 14.44C95.0396 15.032 95.2636 15.784 95.2636 16.696C95.2636 17.064 95.2236 17.456 95.1436 17.872L94.6636 20.68C94.3916 22.2 93.8076 23.36 92.9116 24.16C92.0156 24.944 90.8956 25.336 89.5516 25.336C88.2076 25.336 87.2716 24.976 86.7436 24.256L85.4476 31.672H81.3676L84.5836 13.456H88.2796L88.1596 14.104C88.9116 13.464 89.9276 13.144 91.2076 13.144ZM88.7116 21.88C89.1596 21.88 89.5756 21.736 89.9596 21.448C90.3436 21.16 90.5836 20.728 90.6796 20.152L90.9916 18.352C91.0236 18.192 91.0396 17.992 91.0396 17.752C91.0396 17.512 90.9356 17.256 90.7276 16.984C90.5196 16.712 90.1596 16.576 89.6476 16.576C88.8156 16.576 88.2716 16.776 88.0156 17.176L87.2956 21.208C87.5196 21.656 87.9916 21.88 88.7116 21.88ZM107.964 21.304C107.964 21.72 108.172 21.928 108.588 21.928C109.02 21.928 109.38 21.848 109.668 21.688L109.548 24.4C108.78 25.024 107.916 25.336 106.956 25.336C105.196 25.336 104.22 24.696 104.028 23.416C103.228 24.696 102.052 25.336 100.5 25.336C97.8757 25.336 96.5637 24.208 96.5637 21.952C96.5637 21.568 96.6037 21.144 96.6837 20.68L97.1877 17.872C97.4437 16.432 98.0277 15.288 98.9397 14.44C99.8677 13.576 101.068 13.144 102.54 13.144C104.028 13.144 105.036 13.488 105.564 14.176L105.684 13.456H109.332L107.988 21.016C107.972 21.112 107.964 21.208 107.964 21.304ZM100.86 20.152C100.828 20.296 100.812 20.496 100.812 20.752C100.812 21.008 100.932 21.264 101.172 21.52C101.412 21.76 101.812 21.88 102.372 21.88C102.948 21.88 103.444 21.656 103.86 21.208L104.58 17.176C104.404 16.776 103.988 16.576 103.332 16.576C102.1 16.576 101.38 17.168 101.172 18.352L100.86 20.152ZM122.785 15.904C122.785 16.448 122.689 16.976 122.497 17.488C122.321 18 122.145 18.376 121.969 18.616L121.705 18.952H118.081C118.481 18.584 118.681 18.128 118.681 17.584C118.681 17.296 118.585 17.064 118.393 16.888C118.217 16.696 117.969 16.6 117.649 16.6C117.105 16.6 116.633 16.872 116.233 17.416L114.889 25H110.809L112.849 13.456H116.641L116.353 15.064C117.265 13.768 118.369 13.12 119.665 13.12C120.705 13.12 121.481 13.368 121.993 13.864C122.521 14.36 122.785 15.04 122.785 15.904ZM128.609 25.336C126.753 25.336 125.417 24.92 124.601 24.088C123.993 23.48 123.689 22.664 123.689 21.64C123.689 21.304 123.721 20.944 123.785 20.56L125.417 11.272L129.809 9.448L129.113 13.456H135.737L135.137 16.84H128.513L128.033 19.552C127.969 19.856 127.937 20.128 127.937 20.368C127.937 21.376 128.417 21.88 129.377 21.88C129.889 21.88 130.313 21.664 130.649 21.232C131.001 20.8 131.241 20.224 131.369 19.504H135.353C134.681 23.392 132.433 25.336 128.609 25.336ZM141.709 21.928C142.077 21.928 142.405 21.848 142.693 21.688L142.573 24.4C141.821 25.024 140.965 25.336 140.005 25.336C138.549 25.336 137.605 25 137.173 24.328C136.885 23.88 136.741 23.408 136.741 22.912C136.741 22.4 136.773 21.952 136.837 21.568L138.277 13.456H142.357L141.013 21.016C140.997 21.112 140.989 21.2 140.989 21.28C140.989 21.712 141.229 21.928 141.709 21.928ZM138.757 9.544C138.757 8.52 138.981 7.776 139.429 7.312C139.893 6.832 140.605 6.592 141.565 6.592C142.909 6.592 143.581 7.184 143.581 8.368C143.581 9.376 143.349 10.112 142.885 10.576C142.437 11.04 141.725 11.272 140.749 11.272C139.421 11.272 138.757 10.696 138.757 9.544ZM155.809 15.904C155.809 16.448 155.713 16.976 155.521 17.488C155.345 18 155.169 18.376 154.993 18.616L154.729 18.952H151.105C151.505 18.584 151.705 18.128 151.705 17.584C151.705 17.296 151.609 17.064 151.417 16.888C151.241 16.696 150.993 16.6 150.673 16.6C150.129 16.6 149.657 16.872 149.257 17.416L147.913 25H143.833L145.873 13.456H149.665L149.377 15.064C150.289 13.768 151.393 13.12 152.689 13.12C153.729 13.12 154.505 13.368 155.017 13.864C155.545 14.36 155.809 15.04 155.809 15.904Z" fill="#EDEDED"/>
<rect y="43" width="88" height="56" rx="10" fill="#2D9CDB"/>
<path d="M59.6257 61.2501C58.4386 61.7897 57.159 62.1442 55.8332 62.3138C57.1899 61.4967 58.2382 60.2017 58.7315 58.6447C57.4519 59.4155 56.0336 59.9551 54.5382 60.2634C53.3203 58.9376 51.609 58.1667 49.6665 58.1667C46.0436 58.1667 43.0836 61.1267 43.0836 64.7805C43.0836 65.3047 43.1453 65.8134 43.2532 66.2913C37.7649 66.0138 32.8778 63.3776 29.6249 59.3847C29.0544 60.3559 28.7307 61.4967 28.7307 62.6992C28.7307 64.9963 29.8869 67.0313 31.6753 68.1876C30.5807 68.1876 29.5632 67.8792 28.669 67.4167V67.463C28.669 70.6697 30.9507 73.3522 33.9724 73.9534C33.0022 74.2189 31.9838 74.2558 30.9969 74.0613C31.4157 75.3756 32.2357 76.5255 33.3418 77.3496C34.448 78.1737 35.7845 78.6304 37.1636 78.6555C34.8259 80.5062 31.9281 81.5065 28.9465 81.4922C28.4224 81.4922 27.8982 81.4613 27.374 81.3997C30.3032 83.2805 33.7874 84.3751 37.5182 84.3751C49.6665 84.3751 56.3419 74.2926 56.3419 65.5513C56.3419 65.2584 56.3419 64.9809 56.3265 64.688C57.6215 63.763 58.7315 62.5913 59.6257 61.2501Z" fill="#F2F2F2"/>
<rect x="99" y="43" width="88" height="56" rx="10" fill="#27AE60"/>
<path d="M154.625 59.7288C153.135 58.224 151.361 57.0308 149.405 56.2189C147.449 55.4071 145.351 54.9927 143.234 55.0001C134.361 55.0001 127.13 62.2313 127.13 71.1038C127.13 73.9476 127.878 76.7101 129.275 79.1476L127 87.5001L135.531 85.2576C137.888 86.5413 140.536 87.2238 143.234 87.2238C152.106 87.2238 159.338 79.9926 159.338 71.1201C159.338 66.8138 157.664 62.7676 154.625 59.7288ZM143.234 84.4938C140.829 84.4938 138.472 83.8438 136.409 82.6251L135.921 82.3326L130.851 83.6651L132.2 78.7251L131.875 78.2213C130.539 76.0877 129.829 73.6214 129.828 71.1038C129.828 63.7263 135.84 57.7138 143.217 57.7138C146.792 57.7138 150.156 59.1113 152.675 61.6463C153.922 62.8878 154.911 64.3644 155.583 65.9907C156.255 67.6169 156.598 69.3604 156.591 71.1201C156.624 78.4976 150.611 84.4938 143.234 84.4938ZM150.579 74.4838C150.172 74.2888 148.19 73.3138 147.832 73.1676C147.459 73.0376 147.199 72.9726 146.923 73.3626C146.646 73.7688 145.882 74.6788 145.655 74.9388C145.427 75.2151 145.184 75.2476 144.777 75.0363C144.371 74.8413 143.071 74.4026 141.544 73.0376C140.341 71.9651 139.545 70.6488 139.301 70.2426C139.074 69.8363 139.269 69.6251 139.48 69.4138C139.659 69.2351 139.886 68.9426 140.081 68.7151C140.276 68.4876 140.358 68.3088 140.488 68.0488C140.618 67.7726 140.552 67.5451 140.455 67.3501C140.357 67.1551 139.545 65.1726 139.22 64.3601C138.895 63.5801 138.554 63.6776 138.31 63.6613H137.53C137.254 63.6613 136.831 63.7588 136.457 64.1651C136.1 64.5713 135.06 65.5463 135.06 67.5288C135.06 69.5113 136.506 71.4288 136.701 71.6888C136.896 71.9651 139.545 76.0276 143.575 77.7663C144.534 78.1888 145.281 78.4326 145.866 78.6113C146.825 78.9201 147.703 78.8713 148.401 78.7738C149.181 78.6601 150.79 77.7988 151.115 76.8563C151.456 75.9138 151.456 75.1176 151.343 74.9388C151.229 74.7601 150.985 74.6788 150.579 74.4838Z" fill="#F2F2F2"/>
</svg>
