<svg width="13" height="12" viewBox="0 0 13 12" fill="none" xmlns="http://www.w3.org/2000/svg">
<path d="M5.73836 11.763L0.229535 6.54849C0.146067 6.46949 0.0868056 6.38389 0.0517494 6.29172C0.0172497 6.19954 0 6.10079 0 5.99544C0 5.8901 0.0172497 5.79134 0.0517494 5.69916C0.0868056 5.60699 0.146067 5.5214 0.229535 5.44239L5.73836 0.227906C5.89139 0.0830587 6.08253 0.00721195 6.31178 0.000364651C6.54159 -0.00595594 6.73997 0.0698908 6.9069 0.227906C7.07384 0.372752 7.16092 0.553679 7.16815 0.770686C7.17483 0.98822 7.0947 1.17599 6.92777 1.33401L2.83788 5.20537H12.1653C12.4018 5.20537 12.6002 5.28095 12.7604 5.43212C12.9201 5.58381 13 5.77159 13 5.99544C13 6.2193 12.9201 6.40681 12.7604 6.55797C12.6002 6.70967 12.4018 6.78551 12.1653 6.78551H2.83788L6.92777 10.6569C7.08079 10.8017 7.16092 10.9861 7.16815 11.2099C7.17483 11.4338 7.0947 11.6181 6.92777 11.763C6.77475 11.921 6.57999 12 6.3435 12C6.10701 12 5.9053 11.921 5.73836 11.763Z" fill="black"/>
</svg>
