<svg width="24" height="18" viewBox="0 0 24 18" fill="none" xmlns="http://www.w3.org/2000/svg">
<path d="M11.2 14.1429L14.6667 10.8L18.1333 14.1429L20 12.3429L16.5333 9L20 5.65714L18.1333 3.85714L14.6667 7.2L11.2 3.85714L9.33333 5.65714L12.8 9L9.33333 12.3429L11.2 14.1429ZM0 9L5.8 1.09286C6.04444 0.75 6.36133 0.482143 6.75067 0.289286C7.14 0.0964284 7.55644 0 8 0H21.3333C22.0667 0 22.6947 0.252 23.2173 0.756C23.74 1.26 24.0009 1.86514 24 2.57143V15.4286C24 16.1357 23.7387 16.7413 23.216 17.2453C22.6933 17.7493 22.0658 18.0009 21.3333 18H8C7.55555 18 7.13867 17.9036 6.74933 17.7107C6.36 17.5179 6.04355 17.25 5.8 16.9071L0 9Z" fill="#ECECEC"/>
</svg>
