<svg width="32" height="32" viewBox="0 0 32 32" fill="none" xmlns="http://www.w3.org/2000/svg">
<path d="M2 16C2 8.268 8.268 2 16 2C23.732 2 30 8.268 30 16C30 23.732 23.732 30 16 30C8.268 30 2 23.732 2 16ZM15.311 4.02C15.3231 4.18817 15.2868 4.35629 15.2066 4.50458C15.1263 4.65286 15.0054 4.77513 14.858 4.857L11.115 6.936C11.0385 6.97849 10.9568 7.01076 10.872 7.032L10.485 7.129L10.701 8.64L14.196 9.34C14.3912 9.37828 14.5703 9.47446 14.71 9.616L19 7.47V5.617C19 5.37863 19.0851 5.1481 19.24 4.96695C19.395 4.7858 19.6095 4.66595 19.845 4.629C18.3868 4.13648 16.8475 3.93037 15.311 4.02ZM7.781 7.257C5.83287 9.08441 4.55162 11.5107 4.141 14.15L7.308 12.567C7.33123 12.5126 7.35935 12.4604 7.392 12.411L9.63 9.057C9.76371 8.85632 9.96543 8.71071 10.198 8.647L9.998 7.251L8.768 7.558C8.59186 7.60323 8.40666 7.59907 8.23273 7.54597C8.0588 7.49287 7.90185 7.39289 7.781 7.257ZM4.065 14.747C4.022 15.157 4 15.574 4 15.995V16.005C4 17.369 4.229 18.681 4.649 19.903L7.359 22.915C7.44791 22.8079 7.55829 22.7207 7.683 22.659L9.481 21.759C9.57422 21.7128 9.67409 21.6814 9.777 21.666L10.185 16.775C9.92767 16.7346 9.69626 16.5954 9.54 16.387L7.425 13.566C7.33428 13.4455 7.27206 13.306 7.243 13.158L4.065 14.748V14.747ZM7.15 23.43L5.228 21.294C5.80103 22.4577 6.55848 23.5211 7.471 24.443C7.36034 24.2156 7.26578 23.9807 7.188 23.74C7.15578 23.64 7.14289 23.5348 7.15 23.43ZM16 28C18.566 28 20.944 27.194 22.895 25.822L23.141 23.859C23.026 23.8741 22.9093 23.869 22.796 23.844L19.783 23.174C19.5743 23.1277 19.3861 23.0155 19.246 22.854L14.416 25.084C14.4146 25.0974 14.4129 25.1107 14.411 25.124L14.15 26.954C14.129 27.098 14.078 27.234 14.004 27.354C14.443 27.6 14.903 27.808 15.364 27.984C15.574 27.994 15.786 28 16 28ZM23.675 23.618L23.451 25.408C25.5912 23.7138 27.09 21.3406 27.7 18.68L26.237 19.411C26.2166 19.4633 26.1919 19.5138 26.163 19.562L23.871 23.382C23.8182 23.4703 23.7521 23.5499 23.675 23.618ZM26.281 18.83L27.824 18.059C27.94 17.389 28 16.702 28 16C28 13.373 27.156 10.943 25.724 8.967C25.6989 9.19252 25.5976 9.40274 25.437 9.563L24.552 10.448C24.4545 10.5455 24.3379 10.6217 24.2095 10.672C24.0811 10.7222 23.9438 10.7454 23.806 10.74L24.193 15.885C24.2955 15.9528 24.3847 16.0389 24.456 16.139L26.119 18.467C26.199 18.577 26.253 18.702 26.281 18.83ZM10.691 16.724L10.275 21.716C10.3482 21.7431 10.418 21.7787 10.483 21.822L13.976 24.15C14.1318 24.2542 14.2551 24.4001 14.332 24.571L19.022 22.407C19.0073 22.338 18.9999 22.2676 19 22.197V18.177C18.9998 18.0327 19.0309 17.8901 19.091 17.759L14.587 15.132C14.5202 15.1808 14.4477 15.2211 14.371 15.252L10.711 16.715L10.691 16.724ZM14.909 14.741L19.412 17.368C19.4791 17.3192 19.552 17.2788 19.629 17.248L23.271 15.792C23.4008 15.7399 23.5402 15.7157 23.68 15.721L23.293 10.576L19.485 8.291C19.347 8.20816 19.2311 8.09324 19.147 7.956L14.963 10.048C14.987 10.135 15 10.226 15 10.32V14.323C15.0002 14.4673 14.9691 14.6099 14.909 14.741Z" fill="#FAFAFA"/>
</svg>
