<svg width="49" height="56" viewBox="0 0 49 56" fill="none" xmlns="http://www.w3.org/2000/svg">
<path d="M1 56C0.447716 56 0 55.5523 0 55V19.1619C0 18.8498 0.145708 18.5557 0.393957 18.3665L23.894 0.461747C24.252 0.18899 24.748 0.18899 25.106 0.461747L48.606 18.3665C48.8543 18.5557 49 18.8498 49 19.1619V55C49 55.5523 48.5523 56 48 56H31.625C31.0727 56 30.625 55.5523 30.625 55V35.2222C30.625 34.6699 30.1773 34.2222 29.625 34.2222H19.375C18.8227 34.2222 18.375 34.6699 18.375 35.2222V55C18.375 55.5523 17.9273 56 17.375 56H1Z" fill="black"/>
</svg>
