<svg width="163" height="134" viewBox="0 0 163 134" fill="none" xmlns="http://www.w3.org/2000/svg">
<path d="M34.2197 54.6635L34.2188 54.6643C31.0448 57.2963 25.7911 58.8081 18.0452 58.8081C12.2365 58.8081 8.24845 57.6616 5.74435 55.7008C3.3333 53.8128 2 50.9314 2 46.6777C2 31.0972 6.62256 20.0233 15.5168 13.001L15.517 13.0009C24.2505 6.10423 36.5563 2.36858 52.6624 2.02592L51.109 9.48857C46.3245 9.81811 40.9998 11.5634 35.1763 14.5742C28.5364 17.9686 24.3128 22.9067 22.837 29.4054L22.2822 31.8483H24.7873C30.1038 31.8483 33.7355 32.7826 35.9905 34.3488C38.1133 35.8232 39.2461 38.0175 39.2461 41.2796C39.2461 47.6854 37.4445 51.9926 34.2197 54.6635ZM71.6971 18.8144L71.7085 18.8068C81.9518 11.9218 96.8317 8.35071 116.598 8.35071C132.204 8.35071 143.376 10.727 150.43 15.1859L150.445 15.1954L150.46 15.2047C157.593 19.537 161 25.3776 161 32.8649C161 38.2457 159.36 43.2397 156.021 47.8933L156.011 47.9077L156 47.9224C152.717 52.6749 148.616 56.6165 143.683 59.7558C138.568 63.0109 133.456 66.0016 128.347 68.7285C123.146 71.5047 118.527 74.2369 114.497 76.9264C110.453 79.6245 107.622 82.5386 106.913 85.773L104.894 94.5308H75.6376L77.3051 86.6418C78.4128 81.8259 80.6705 77.785 84.0832 74.4672L84.0936 74.4571L84.1038 74.4468C87.6463 70.9014 91.4742 68.2469 95.5857 66.4513L95.5939 66.4477L95.602 66.4441C100.092 64.4354 104.515 62.4797 108.872 60.5769L108.88 60.573C114.103 58.2621 118.176 55.3756 120.948 51.8417C123.744 48.2774 125.142 44.1484 125.142 39.5332C125.142 36.0249 123.662 33.2167 120.723 31.4015C117.942 29.6843 114.029 28.9597 109.261 28.9597C102.568 28.9597 97.1115 30.7515 93.1944 34.6046C89.2985 38.33 87.4312 43.3333 87.4312 49.3768C87.4312 51.0014 87.6179 52.5598 87.9982 54.045H57.255C56.7837 51.962 56.5306 49.3595 56.5306 46.2014C56.5306 34.6304 61.5175 25.556 71.6971 18.8144ZM97.1046 127.834L97.0912 127.845L97.078 127.856C93.9085 130.484 88.594 132 80.706 132C75.3896 132 71.7578 131.066 69.5028 129.5C67.3801 128.025 66.2472 125.831 66.2472 122.569C66.2472 116.137 67.9975 111.896 71.0753 109.344C74.3915 106.597 79.7225 105.04 87.4482 105.04C92.8264 105.04 96.5025 106 98.7882 107.612C100.946 109.134 102.105 111.409 102.105 114.789C102.105 121.081 100.309 125.269 97.1046 127.834Z" fill="white" stroke="#359CBE" stroke-width="4"/>
</svg>
