<svg width="41" height="37" viewBox="0 0 41 37" fill="none" xmlns="http://www.w3.org/2000/svg">
<path d="M16.1862 0.208884C16.531 0.0398598 16.9161 -0.0287187 17.2978 0.0109525C17.6795 0.0506236 18.0424 0.196951 18.3453 0.433283L30.0886 9.59252H37.5838C38.4898 9.59252 39.3587 9.95347 39.9994 10.596C40.6401 11.2384 41 12.1098 41 13.0185V23.9815C41 24.8901 40.6401 25.7615 39.9994 26.404C39.3587 27.0465 38.4898 27.4074 37.5838 27.4074H30.0886L18.3453 36.5666C18.0424 36.803 17.6795 36.9494 17.2978 36.989C16.916 37.0287 16.5309 36.9601 16.1861 36.7911C15.8414 36.6221 15.5508 36.3594 15.3476 36.0329C15.1444 35.7064 15.0367 35.3293 15.0367 34.9445V2.05546C15.0367 1.67061 15.1445 1.2935 15.3477 0.967039C15.5509 0.640583 15.8415 0.377899 16.1862 0.208884ZM36.9005 13.7036H31.4346V23.2963H36.9005V13.7036ZM19.1361 30.7425L27.3351 24.3446V12.6553L19.1361 6.25909V30.7425ZM0.604811 21.1585C0.414145 21.3497 0.262903 21.5767 0.159715 21.8265C0.0565276 22.0763 0.00341612 22.3441 0.00341612 22.6145C0.00341612 22.8849 0.0565276 23.1527 0.159715 23.4025C0.262903 23.6523 0.414145 23.8793 0.604811 24.0705C0.795477 24.2617 1.02183 24.4134 1.27095 24.5169C1.52007 24.6204 1.78707 24.6736 2.05671 24.6736C2.32635 24.6736 2.59335 24.6204 2.84247 24.5169C3.09159 24.4134 3.31794 24.2617 3.5086 24.0705L6.15447 21.412L8.80376 24.0705C9.18883 24.4567 9.71109 24.6736 10.2557 24.6736C10.8002 24.6736 11.3225 24.4567 11.7076 24.0705C12.0926 23.6844 12.3089 23.1606 12.3089 22.6145C12.3089 22.0684 12.0926 21.5446 11.7076 21.1585L9.05827 18.5L11.7093 15.8431C12.0943 15.457 12.3107 14.9332 12.3107 14.3871C12.3107 13.841 12.0943 13.3173 11.7093 12.9311C11.3242 12.5449 10.8019 12.328 10.2574 12.328C9.7128 12.328 9.19054 12.5449 8.80547 12.9311L6.15447 15.5879L3.50519 12.9311C3.12012 12.5449 2.59786 12.328 2.05329 12.328C1.50873 12.328 0.986464 12.5449 0.601397 12.9311C0.21633 13.3173 -8.33933e-07 13.841 -8.33933e-07 14.3871C-8.33933e-07 14.9332 0.21633 15.457 0.601397 15.8431L3.25068 18.5L0.604811 21.1585Z" fill="black"/>
</svg>
