<svg width="40" height="32" viewBox="0 0 40 32" fill="none" xmlns="http://www.w3.org/2000/svg">
<path d="M39.1766 3.99992C37.7649 4.64158 36.2432 5.06325 34.6666 5.26492C36.2799 4.29325 37.5266 2.75325 38.1132 0.901585C36.5916 1.81825 34.9049 2.45992 33.1266 2.82659C31.6782 1.24992 29.6432 0.333252 27.3332 0.333252C23.0249 0.333252 19.5049 3.85325 19.5049 8.19825C19.5049 8.82158 19.5782 9.42659 19.7066 9.99492C13.1799 9.66492 7.36824 6.52992 3.49991 1.78159C2.82158 2.93659 2.43658 4.29325 2.43658 5.72325C2.43658 8.45492 3.81158 10.8749 5.93824 12.2499C4.63658 12.2499 3.42658 11.8833 2.36324 11.3333V11.3883C2.36324 15.2016 5.07658 18.3916 8.66991 19.1066C7.51624 19.4223 6.30508 19.4662 5.13158 19.2349C5.62952 20.7978 6.60473 22.1653 7.92011 23.1453C9.23549 24.1252 10.8249 24.6684 12.4649 24.6983C9.6849 26.8991 6.2389 28.0887 2.69324 28.0716C2.06991 28.0716 1.44658 28.0349 0.823242 27.9616C4.30658 30.1982 8.44991 31.4999 12.8866 31.4999C27.3332 31.4999 35.2716 19.5099 35.2716 9.11492C35.2716 8.76658 35.2716 8.43658 35.2532 8.08825C36.7932 6.98825 38.1132 5.59492 39.1766 3.99992Z" fill="#F2F2F2"/>
</svg>
