<svg width="41" height="37" viewBox="0 0 41 37" fill="none" xmlns="http://www.w3.org/2000/svg">
<path d="M16.183 0.208884C16.5278 0.0398598 16.913 -0.0287187 17.2948 0.0109525C17.6765 0.0506236 18.0395 0.196951 18.3424 0.433283L30.0872 9.59252H37.5833C38.4895 9.59252 39.3585 9.95347 39.9993 10.596C40.64 11.2384 41 12.1098 41 13.0185V23.9815C41 24.8901 40.64 25.7615 39.9993 26.404C39.3585 27.0465 38.4895 27.4074 37.5833 27.4074H30.0872L18.3424 36.5666C18.0395 36.803 17.6765 36.9494 17.2947 36.989C16.913 37.0287 16.5277 36.9601 16.1829 36.7911C15.8381 36.6221 15.5476 36.3594 15.3443 36.0329C15.1411 35.7064 15.0333 35.3293 15.0333 34.9445V2.05546C15.0334 1.67061 15.1411 1.2935 15.3444 0.967039C15.5477 0.640583 15.8382 0.377899 16.183 0.208884ZM36.9 13.7036H31.4333V23.2963H36.9V13.7036ZM19.1333 30.7408L27.3333 24.3463V12.6536L19.1333 6.25909V30.7408ZM6.83334 18.5C6.83306 20.3361 7.50127 22.1093 8.7125 23.4864C8.89063 23.6889 9.10678 23.8542 9.34862 23.9729C9.59045 24.0915 9.85323 24.1613 10.122 24.1782C10.3907 24.195 10.6601 24.1587 10.9148 24.0711C11.1695 23.9836 11.4045 23.8466 11.6064 23.668C11.8083 23.4894 11.9732 23.2726 12.0915 23.0301C12.2099 22.7877 12.2795 22.5242 12.2963 22.2547C12.3131 21.9853 12.2768 21.7151 12.1895 21.4597C12.1022 21.2043 11.9656 20.9687 11.7875 20.7662C11.2383 20.1407 10.9354 19.3359 10.9354 18.5025C10.9354 17.6692 11.2383 16.8644 11.7875 16.2388C12.1288 15.8275 12.2968 15.2989 12.2556 14.7654C12.2144 14.2319 11.9673 13.7355 11.5669 13.3818C11.1665 13.028 10.6443 12.8448 10.1113 12.871C9.5783 12.8972 9.07648 13.1307 8.7125 13.5221C7.50239 14.8965 6.83419 16.6666 6.83334 18.5ZM3.33786e-06 18.5C-0.00209148 22.0397 1.29913 25.4556 3.65413 28.0926C4.01659 28.499 4.5252 28.7443 5.06808 28.7747C5.61095 28.805 6.14362 28.6179 6.5489 28.2545C6.95418 27.891 7.19887 27.381 7.22914 26.8367C7.25942 26.2923 7.0728 25.7582 6.71034 25.3518C5.02949 23.4675 4.10024 21.0281 4.10024 18.5C4.10024 15.9719 5.02949 13.5324 6.71034 11.6481C6.89715 11.4482 7.04224 11.2129 7.13708 10.956C7.23191 10.6992 7.27459 10.4258 7.2626 10.1522C7.25061 9.87853 7.18418 9.61003 7.06724 9.36247C6.95029 9.11492 6.78518 8.89329 6.5816 8.71063C6.37803 8.52796 6.1401 8.38794 5.88179 8.29879C5.62348 8.20963 5.35 8.17315 5.07743 8.19147C4.80486 8.2098 4.53868 8.28257 4.29456 8.4055C4.05043 8.52843 3.83327 8.69906 3.65584 8.90734C1.30022 11.5441 -0.00162192 14.96 3.33786e-06 18.5Z" fill="black"/>
</svg>
