<svg width="33" height="33" viewBox="0 0 33 33" fill="none" xmlns="http://www.w3.org/2000/svg">
<path d="M27.625 4.72885C26.1352 3.22398 24.3607 2.03081 22.4049 1.21893C20.4492 0.407053 18.3513 -0.00728019 16.2337 9.68006e-05C7.36125 9.68006e-05 0.13 7.23135 0.13 16.1038C0.13 18.9476 0.8775 21.7101 2.275 24.1476L0 32.5001L8.53125 30.2576C10.8875 31.5413 13.5363 32.2238 16.2337 32.2238C25.1062 32.2238 32.3375 24.9926 32.3375 16.1201C32.3375 11.8138 30.6637 7.7676 27.625 4.72885ZM16.2337 29.4938C13.8287 29.4938 11.4725 28.8438 9.40875 27.6251L8.92125 27.3326L3.85125 28.6651L5.2 23.7251L4.875 23.2213C3.53884 21.0877 2.82935 18.6214 2.8275 16.1038C2.8275 8.72635 8.84 2.71385 16.2175 2.71385C19.7925 2.71385 23.1562 4.11135 25.675 6.64635C26.9222 7.88779 27.9105 9.36442 28.5828 10.9907C29.255 12.6169 29.5978 14.3604 29.5913 16.1201C29.6238 23.4976 23.6112 29.4938 16.2337 29.4938ZM23.5787 19.4838C23.1725 19.2888 21.19 18.3138 20.8325 18.1676C20.4587 18.0376 20.1987 17.9726 19.9225 18.3626C19.6462 18.7688 18.8825 19.6788 18.655 19.9388C18.4275 20.2151 18.1838 20.2476 17.7775 20.0363C17.3713 19.8413 16.0712 19.4026 14.5437 18.0376C13.3412 16.9651 12.545 15.6488 12.3012 15.2426C12.0737 14.8363 12.2687 14.6251 12.48 14.4138C12.6587 14.2351 12.8863 13.9426 13.0813 13.7151C13.2762 13.4876 13.3575 13.3088 13.4875 13.0488C13.6175 12.7726 13.5525 12.5451 13.455 12.3501C13.3575 12.1551 12.545 10.1726 12.22 9.3601C11.895 8.5801 11.5538 8.6776 11.31 8.66135H10.53C10.2537 8.66135 9.83125 8.75885 9.4575 9.1651C9.1 9.57135 8.06 10.5463 8.06 12.5288C8.06 14.5113 9.50625 16.4288 9.70125 16.6888C9.89625 16.9651 12.545 21.0276 16.575 22.7663C17.5338 23.1888 18.2812 23.4326 18.8662 23.6113C19.825 23.9201 20.7025 23.8713 21.4013 23.7738C22.1812 23.6601 23.79 22.7988 24.115 21.8563C24.4562 20.9138 24.4563 20.1176 24.3425 19.9388C24.2288 19.7601 23.985 19.6788 23.5787 19.4838Z" fill="#F2F2F2"/>
</svg>
